<?xml version="1.0" encoding="utf-8"?>
<!-- Generator: Adobe Illustrator 27.5.0, SVG Export Plug-In . SVG Version: 6.00 Build 0)  -->
<svg version="1.1" id="Ñëîé_1" xmlns="http://www.w3.org/2000/svg" xmlns:xlink="http://www.w3.org/1999/xlink" x="0px" y="0px"
	 viewBox="0 0 2749.713 2200" style="enable-background:new 0 0 2749.713 2200;" xml:space="preserve">
<rect style="fill:#FFFFFF;" width="2749.713" height="2200"/>
<g>
	<path style="fill:#322A28;" d="M718.266,290.046h36.459c4.233,0,8.493,0.3,12.774,0.898c4.281,0.6,8.125,1.795,11.532,3.59
		c3.405,1.795,6.167,4.304,8.286,7.526c2.118,3.225,3.176,7.505,3.176,12.844c0,5.524-1.543,10.105-4.626,13.741
		c-3.086,3.637-7.16,6.238-12.222,7.802v0.276c3.222,0.462,6.146,1.359,8.77,2.693c2.624,1.335,4.879,3.038,6.767,5.109
		c1.887,2.071,3.336,4.488,4.351,7.251c1.012,2.762,1.519,5.71,1.519,8.838c0,5.157-1.105,9.46-3.314,12.912
		c-2.21,3.453-5.065,6.238-8.563,8.356c-3.5,2.118-7.435,3.637-11.807,4.557c-4.374,0.921-8.724,1.381-13.051,1.381h-40.049V290.046
		z M739.811,329.129h15.605c1.657,0,3.291-0.184,4.903-0.552c1.609-0.367,3.06-0.967,4.35-1.795
		c1.289-0.829,2.325-1.934,3.107-3.315c0.782-1.381,1.174-3.038,1.174-4.971c0-2.024-0.438-3.705-1.312-5.041
		c-0.876-1.333-2.002-2.369-3.383-3.107c-1.381-0.736-2.948-1.265-4.695-1.588c-1.75-0.322-3.453-0.483-5.11-0.483h-14.638V329.129z
		 M739.811,369.592h19.333c1.657,0,3.336-0.183,5.041-0.552c1.703-0.367,3.246-1.012,4.627-1.933
		c1.38-0.919,2.507-2.118,3.383-3.591c0.874-1.472,1.312-3.267,1.312-5.385c0-2.3-0.577-4.165-1.727-5.593
		c-1.152-1.427-2.602-2.507-4.35-3.246c-1.75-0.735-3.638-1.243-5.663-1.519c-2.026-0.276-3.914-0.414-5.662-0.414h-16.296V369.592z
		"/>
	<path style="fill:#322A28;" d="M847.252,379.397h-0.276c-2.302,3.59-5.364,6.169-9.184,7.734
		c-3.821,1.564-7.849,2.348-12.084,2.348c-3.131,0-6.146-0.438-9.046-1.312c-2.9-0.874-5.455-2.186-7.664-3.936
		c-2.21-1.748-3.96-3.913-5.249-6.491c-1.29-2.576-1.933-5.569-1.933-8.977c0-3.867,0.712-7.133,2.141-9.804
		c1.427-2.67,3.359-4.879,5.8-6.629c2.438-1.748,5.224-3.108,8.355-4.074c3.129-0.966,6.374-1.679,9.736-2.141
		c3.36-0.459,6.719-0.735,10.082-0.829c3.359-0.091,6.467-0.138,9.321-0.138c0-3.682-1.312-6.605-3.936-8.77
		c-2.624-2.162-5.731-3.246-9.321-3.246c-3.407,0-6.514,0.715-9.322,2.141c-2.81,1.428-5.317,3.384-7.526,5.87l-11.048-11.324
		c3.867-3.59,8.376-6.283,13.533-8.078c5.155-1.795,10.495-2.693,16.02-2.693c6.076,0,11.07,0.759,14.985,2.278
		c3.912,1.52,7.043,3.753,9.391,6.698c2.348,2.947,3.981,6.56,4.902,10.841c0.919,4.281,1.381,9.231,1.381,14.845v34.111h-19.058
		V379.397z M842.143,358.406c-1.567,0-3.522,0.068-5.87,0.207c-2.348,0.138-4.605,0.53-6.767,1.173
		c-2.165,0.646-4.005,1.612-5.524,2.9c-1.52,1.291-2.279,3.086-2.279,5.386c0,2.485,1.058,4.328,3.176,5.524
		c2.118,1.197,4.327,1.795,6.629,1.795c2.024,0,3.981-0.276,5.87-0.829c1.886-0.552,3.567-1.333,5.041-2.348
		c1.472-1.012,2.645-2.301,3.521-3.867c0.874-1.564,1.312-3.405,1.312-5.524v-4.419H842.143z"/>
	<path style="fill:#322A28;" d="M924.725,342.386c-1.015-1.472-2.441-2.692-4.281-3.66c-1.842-0.966-3.821-1.45-5.938-1.45
		c-5.248,0-9.322,1.566-12.222,4.695c-2.9,3.131-4.351,7.229-4.351,12.291c0,5.065,1.451,9.162,4.351,12.292
		c2.9,3.131,6.974,4.695,12.222,4.695c2.299,0,4.28-0.505,5.938-1.519c1.658-1.013,3.084-2.21,4.281-3.591l13.672,14.363
		c-3.224,3.314-7.022,5.64-11.394,6.974c-4.374,1.334-8.541,2.003-12.497,2.003c-5.157,0-10.012-0.829-14.57-2.486
		c-4.558-1.658-8.517-4.026-11.877-7.112c-3.362-3.083-6.007-6.789-7.941-11.117c-1.934-4.327-2.9-9.159-2.9-14.501
		c0-5.338,0.966-10.172,2.9-14.501c1.934-4.326,4.579-8.031,7.941-11.116c3.359-3.084,7.319-5.456,11.877-7.112
		c4.558-1.658,9.413-2.486,14.57-2.486c3.957,0,8.124,0.669,12.497,2.002c4.372,1.336,8.17,3.659,11.394,6.974L924.725,342.386z"/>
	<path style="fill:#322A28;" d="M945.853,283.417h20.716v63.803l22.925-26.515h25.41l-26.654,30.244l27.345,36.873h-26.101
		l-22.648-33.973h-0.276v33.973h-20.716V283.417z"/>
	<path style="fill:#322A28;" d="M1066.966,290.046h66.427v19.887h-44.883v18.228h42.398v19.887h-42.398v19.886h47.369v19.887
		h-68.913V290.046z"/>
	<path style="fill:#322A28;" d="M1150.516,320.704h19.887v9.114h0.276c0.643-1.288,1.564-2.577,2.762-3.866
		c1.195-1.289,2.624-2.439,4.281-3.453c1.657-1.013,3.543-1.84,5.663-2.486c2.117-0.643,4.419-0.966,6.904-0.966
		c5.248,0,9.482,0.807,12.705,2.417c3.222,1.611,5.731,3.845,7.527,6.697c1.795,2.855,3.014,6.215,3.66,10.082
		c0.643,3.867,0.966,8.057,0.966,12.567v37.012h-20.715v-32.868c0-1.934-0.069-3.936-0.208-6.008
		c-0.138-2.071-0.552-3.981-1.243-5.731c-0.69-1.748-1.75-3.176-3.176-4.281c-1.428-1.104-3.476-1.657-6.146-1.657
		c-2.671,0-4.833,0.483-6.49,1.45c-1.657,0.967-2.924,2.257-3.797,3.867c-0.877,1.611-1.45,3.43-1.727,5.455
		c-0.276,2.026-0.414,4.143-0.414,6.353v33.42h-20.716V320.704z"/>
	<path style="fill:#322A28;" d="M1300.217,387.821h-19.058v-8.838h-0.276c-0.828,1.197-1.912,2.416-3.245,3.66
		c-1.336,1.243-2.9,2.371-4.696,3.383c-1.795,1.014-3.776,1.84-5.938,2.485c-2.165,0.643-4.398,0.967-6.698,0.967
		c-4.971,0-9.483-0.853-13.533-2.556c-4.052-1.702-7.527-4.096-10.427-7.18c-2.9-3.084-5.133-6.743-6.697-10.98
		c-1.567-4.233-2.348-8.883-2.348-13.948c0-4.695,0.711-9.184,2.141-13.465c1.425-4.28,3.452-8.079,6.075-11.393
		c2.625-3.315,5.822-5.96,9.598-7.941c3.774-1.979,8.056-2.969,12.843-2.969c4.327,0,8.356,0.669,12.084,2.002
		c3.729,1.336,6.789,3.614,9.184,6.836h0.276v-44.468h20.715V387.821z M1281.158,354.262c0-5.062-1.45-9.159-4.35-12.291
		c-2.9-3.129-6.974-4.695-12.222-4.695c-5.248,0-9.321,1.566-12.221,4.695c-2.9,3.131-4.351,7.229-4.351,12.291
		c0,5.065,1.451,9.162,4.351,12.292c2.9,3.131,6.974,4.695,12.221,4.695c5.248,0,9.322-1.564,12.222-4.695
		C1279.709,363.425,1281.158,359.327,1281.158,354.262z"/>
	<path style="fill:#322A28;" d="M1360.287,290.046h32.316c7.823,0,15.26,0.876,22.303,2.624c7.043,1.75,13.189,4.581,18.436,8.493
		c5.248,3.914,9.413,9,12.499,15.26c3.083,6.262,4.626,13.858,4.626,22.786c0,7.92-1.498,14.893-4.488,20.923
		c-2.992,6.031-7.022,11.095-12.084,15.191c-5.065,4.099-10.91,7.206-17.538,9.322c-6.629,2.12-13.581,3.176-20.853,3.176h-35.216
		V290.046z M1381.831,367.934h11.186c4.971,0,9.598-0.504,13.879-1.519c4.281-1.012,7.986-2.693,11.117-5.041
		c3.129-2.348,5.593-5.431,7.388-9.253c1.795-3.819,2.693-8.492,2.693-14.017c0-4.787-0.898-8.953-2.693-12.499
		c-1.795-3.543-4.212-6.467-7.25-8.77c-3.039-2.299-6.608-4.026-10.703-5.178c-4.098-1.15-8.402-1.726-12.912-1.726h-12.705V367.934
		z"/>
	<path style="fill:#322A28;" d="M1526.006,376.221c-3.314,4.236-7.505,7.505-12.567,9.805c-5.065,2.301-10.313,3.453-15.743,3.453
		c-5.157,0-10.012-0.829-14.57-2.486s-8.517-4.026-11.877-7.112c-3.362-3.083-6.007-6.789-7.941-11.117
		c-1.934-4.327-2.9-9.159-2.9-14.501c0-5.338,0.966-10.172,2.9-14.501c1.934-4.326,4.579-8.031,7.941-11.116
		c3.359-3.084,7.319-5.456,11.877-7.112c4.558-1.658,9.413-2.486,14.57-2.486c4.786,0,9.135,0.829,13.05,2.486
		c3.913,1.656,7.227,4.028,9.943,7.112c2.715,3.085,4.81,6.791,6.284,11.116c1.471,4.329,2.209,9.162,2.209,14.501v6.491h-48.059
		c0.829,3.959,2.625,7.112,5.386,9.46c2.762,2.348,6.167,3.521,10.219,3.521c3.406,0,6.283-0.759,8.632-2.278
		c2.348-1.519,4.395-3.474,6.145-5.869L1526.006,376.221z M1508.468,346.667c0.09-3.498-1.06-6.49-3.453-8.977
		c-2.396-2.485-5.479-3.729-9.253-3.729c-2.302,0-4.328,0.37-6.076,1.105c-1.75,0.738-3.246,1.681-4.488,2.831
		c-1.243,1.153-2.21,2.486-2.9,4.005c-0.69,1.519-1.083,3.107-1.174,4.765H1508.468z"/>
	<path style="fill:#322A28;" d="M1534.706,320.704h22.372l16.987,45.573h0.276l15.743-45.573h20.853l-26.516,67.117h-21.957
		L1534.706,320.704z"/>
	<path style="fill:#322A28;" d="M1682.059,376.221c-3.314,4.236-7.505,7.505-12.567,9.805c-5.065,2.301-10.313,3.453-15.743,3.453
		c-5.157,0-10.012-0.829-14.57-2.486s-8.517-4.026-11.877-7.112c-3.362-3.083-6.007-6.789-7.941-11.117
		c-1.934-4.327-2.9-9.159-2.9-14.501c0-5.338,0.966-10.172,2.9-14.501c1.934-4.326,4.579-8.031,7.941-11.116
		c3.359-3.084,7.319-5.456,11.877-7.112c4.558-1.658,9.413-2.486,14.57-2.486c4.786,0,9.135,0.829,13.05,2.486
		c3.913,1.656,7.227,4.028,9.943,7.112c2.715,3.085,4.81,6.791,6.284,11.116c1.471,4.329,2.209,9.162,2.209,14.501v6.491h-48.059
		c0.829,3.959,2.625,7.112,5.386,9.46c2.762,2.348,6.167,3.521,10.219,3.521c3.405,0,6.283-0.759,8.632-2.278
		c2.348-1.519,4.395-3.474,6.145-5.869L1682.059,376.221z M1664.52,346.667c0.091-3.498-1.06-6.49-3.453-8.977
		c-2.396-2.485-5.479-3.729-9.253-3.729c-2.302,0-4.328,0.37-6.077,1.105c-1.75,0.738-3.246,1.681-4.488,2.831
		c-1.243,1.153-2.21,2.486-2.9,4.005s-1.083,3.107-1.174,4.765H1664.52z"/>
	<path style="fill:#322A28;" d="M1698.077,283.417h20.716v104.404h-20.716V283.417z"/>
	<path style="fill:#322A28;" d="M1731.221,354.262c0-5.338,0.966-10.172,2.9-14.501c1.933-4.326,4.579-8.031,7.941-11.116
		c3.359-3.084,7.319-5.456,11.876-7.112c4.558-1.658,9.413-2.486,14.57-2.486c5.155,0,10.012,0.829,14.57,2.486
		c4.558,1.656,8.515,4.028,11.877,7.112c3.359,3.085,6.007,6.791,7.941,11.116c1.933,4.329,2.9,9.162,2.9,14.501
		c0,5.341-0.967,10.174-2.9,14.501c-1.934,4.329-4.582,8.034-7.941,11.117c-3.362,3.086-7.319,5.455-11.877,7.112
		s-9.415,2.486-14.57,2.486c-5.157,0-10.012-0.829-14.57-2.486c-4.557-1.658-8.516-4.026-11.876-7.112
		c-3.362-3.083-6.008-6.789-7.941-11.117C1732.188,364.436,1731.221,359.603,1731.221,354.262z M1751.936,354.262
		c0,5.065,1.451,9.162,4.351,12.292c2.9,3.131,6.974,4.695,12.221,4.695s9.322-1.564,12.222-4.695c2.9-3.129,4.35-7.227,4.35-12.292
		c0-5.062-1.45-9.159-4.35-12.291c-2.9-3.129-6.975-4.695-12.222-4.695s-9.321,1.566-12.221,4.695
		C1753.386,345.103,1751.936,349.2,1751.936,354.262z"/>
	<path style="fill:#322A28;" d="M1819.879,320.704h19.058v8.838h0.276c0.828-1.196,1.91-2.417,3.245-3.66
		c1.334-1.243,2.9-2.37,4.695-3.383c1.796-1.013,3.751-1.84,5.87-2.486c2.117-0.643,4.372-0.966,6.767-0.966
		c4.972,0,9.482,0.852,13.534,2.555c4.05,1.705,7.527,4.098,10.427,7.181c2.9,3.086,5.131,6.746,6.697,10.979
		c1.564,4.236,2.348,8.886,2.348,13.948c0,4.696-0.714,9.185-2.141,13.465c-1.428,4.281-3.453,8.079-6.076,11.393
		c-2.624,3.315-5.823,5.962-9.598,7.941c-3.776,1.979-8.057,2.97-12.843,2.97c-4.329,0-8.356-0.669-12.085-2.003
		c-3.728-1.333-6.791-3.611-9.184-6.836h-0.276v38.669h-20.715V320.704z M1838.938,354.262c0,5.065,1.45,9.162,4.35,12.292
		c2.9,3.131,6.974,4.695,12.222,4.695s9.321-1.564,12.221-4.695c2.9-3.129,4.351-7.227,4.351-12.292
		c0-5.062-1.45-9.159-4.351-12.291c-2.9-3.129-6.974-4.695-12.221-4.695s-9.322,1.566-12.222,4.695
		C1840.387,345.103,1838.938,349.2,1838.938,354.262z"/>
	<path style="fill:#322A28;" d="M1968.475,376.221c-3.314,4.236-7.505,7.505-12.567,9.805c-5.065,2.301-10.313,3.453-15.743,3.453
		c-5.157,0-10.012-0.829-14.57-2.486c-4.558-1.658-8.518-4.026-11.877-7.112c-3.362-3.083-6.007-6.789-7.941-11.117
		c-1.934-4.327-2.9-9.159-2.9-14.501c0-5.338,0.966-10.172,2.9-14.501c1.934-4.326,4.579-8.031,7.941-11.116
		c3.359-3.084,7.319-5.456,11.877-7.112c4.557-1.658,9.413-2.486,14.57-2.486c4.786,0,9.135,0.829,13.05,2.486
		c3.913,1.656,7.227,4.028,9.943,7.112c2.715,3.085,4.81,6.791,6.284,11.116c1.471,4.329,2.209,9.162,2.209,14.501v6.491h-48.059
		c0.829,3.959,2.625,7.112,5.386,9.46c2.762,2.348,6.167,3.521,10.219,3.521c3.405,0,6.283-0.759,8.632-2.278
		c2.348-1.519,4.395-3.474,6.145-5.869L1968.475,376.221z M1950.937,346.667c0.09-3.498-1.06-6.49-3.453-8.977
		c-2.396-2.485-5.479-3.729-9.253-3.729c-2.302,0-4.328,0.37-6.076,1.105c-1.75,0.738-3.246,1.681-4.488,2.831
		c-1.243,1.153-2.21,2.486-2.9,4.005c-0.69,1.519-1.083,3.107-1.174,4.765H1950.937z"/>
	<path style="fill:#322A28;" d="M1984.216,320.704h20.716v10.772h0.276c2.209-4.144,4.833-7.251,7.872-9.322
		c3.038-2.071,6.857-3.107,11.462-3.107c1.195,0,2.393,0.047,3.591,0.138c1.195,0.093,2.299,0.276,3.314,0.552v18.921
		c-1.474-0.46-2.924-0.806-4.35-1.037c-1.429-0.228-2.924-0.345-4.488-0.345c-3.96,0-7.091,0.553-9.391,1.657
		c-2.302,1.105-4.073,2.648-5.317,4.627c-1.243,1.981-2.049,4.35-2.416,7.112c-0.37,2.762-0.552,5.8-0.552,9.114v28.035h-20.716
		V320.704z"/>
</g>
<g>
	<g>
		<path style="fill:#E5F0F8;" d="M1929.736,578.623v-5.81l33.541-18.152v8.874l-22.404,12.183l22.404,12.183v8.874L1929.736,578.623
			z"/>
		<path style="fill:#E5F0F8;" d="M2583.261,1060.843v-8.874l22.404-12.183l-22.404-12.183v-8.874l33.541,18.152v5.81
			L2583.261,1060.843z"/>
		<rect x="1975.717" y="568.866" style="fill:#E5F0F8;" width="133.386" height="13.704"/>
		<rect x="1929.736" y="621.822" style="fill:#E5F0F8;" width="133.386" height="13.704"/>
		<rect x="1958.149" y="658.713" style="fill:#E5F0F8;" width="133.386" height="13.704"/>
		<rect x="1958.149" y="760.247" style="fill:#E5F0F8;" width="133.386" height="13.704"/>
		<rect x="1958.149" y="791.655" style="fill:#E5F0F8;" width="133.386" height="13.704"/>
		<rect x="2003.983" y="693.848" style="fill:#E5F0F8;" width="402.265" height="13.704"/>
		<rect x="2003.983" y="825.025" style="fill:#E5F0F8;" width="537.392" height="13.704"/>
		<rect x="2003.983" y="930.086" style="fill:#E5F0F8;" width="537.392" height="13.704"/>
		<rect x="2054.526" y="1032.934" style="fill:#E5F0F8;" width="514.847" height="13.704"/>
		<rect x="2003.983" y="965.784" style="fill:#E5F0F8;" width="115.102" height="13.704"/>
		<rect x="2003.983" y="999.74" style="fill:#E5F0F8;" width="115.102" height="13.704"/>
		<rect x="2003.983" y="858.562" style="fill:#E5F0F8;" width="537.392" height="13.704"/>
		<rect x="2003.983" y="892.1" style="fill:#E5F0F8;" width="290.753" height="13.704"/>
		<rect x="2003.983" y="725.429" style="fill:#E5F0F8;" width="123.348" height="13.704"/>
	</g>
	<path style="fill:#E5F0F8;" d="M478.484,2000.925c0,0-661.866-1561.425,552.73-1455.733
		c520.219,45.269,423.104,319.902,652.862,576.864c148.926,166.56,435.357,30.304,542.694,175.849s-18.801,560.55-63.049,703.019
		H478.484z"/>
	<g>
		<path style="fill:#40A87B;" d="M2169.637,1993.341c0,0,41.938-167.288,146.478-218.916
			c104.541-51.628,216.117,19.054,187.785,93.379c-24.43,64.089-124.889-14.714-203.051,16.275
			c-78.162,30.99-90.483,109.262-90.483,109.262H2169.637z"/>
		<path style="fill:none;stroke:#6ADB6A;stroke-width:4.7107;stroke-miterlimit:10;" d="M2483.692,1823.233
			c0,0-112.199-63.941-195.443-4.826c-83.244,59.115-109.588,174.934-109.588,174.934"/>
		
			<line style="fill:none;stroke:#6ADB6A;stroke-width:4.7107;stroke-miterlimit:10;" x1="2465.595" y1="1793.329" x2="2439.491" y2="1804.71"/>
		
			<line style="fill:none;stroke:#6ADB6A;stroke-width:4.7107;stroke-miterlimit:10;" x1="2427.894" y1="1768.944" x2="2375.9" y2="1793.329"/>
		
			<line style="fill:none;stroke:#6ADB6A;stroke-width:4.7107;stroke-miterlimit:10;" x1="2349.777" y1="1768.944" x2="2322.727" y2="1800.897"/>
		
			<line style="fill:none;stroke:#6ADB6A;stroke-width:4.7107;stroke-miterlimit:10;" x1="2298.504" y1="1790.358" x2="2286.344" y2="1819.785"/>
		
			<line style="fill:none;stroke:#6ADB6A;stroke-width:4.7107;stroke-miterlimit:10;" x1="2452.543" y1="1863.951" x2="2412.47" y2="1797.654"/>
		
			<line style="fill:none;stroke:#6ADB6A;stroke-width:4.7107;stroke-miterlimit:10;" x1="2381.748" y1="1854.45" x2="2344.994" y2="1795.423"/>
		
			<line style="fill:none;stroke:#6ADB6A;stroke-width:4.7107;stroke-miterlimit:10;" x1="2319.315" y1="1845.402" x2="2264.06" y2="1838.535"/>
		
			<line style="fill:none;stroke:#6ADB6A;stroke-width:4.7107;stroke-miterlimit:10;" x1="2254.988" y1="1878.88" x2="2223.315" y2="1889.279"/>
	</g>
	<g>
		<path style="fill:#6ADB6A;" d="M2133.669,1993.829c0,0-29.592-560.742,238.238-488.482s-208.922,374.473-208.517,488.482H2133.669
			z"/>
		<path style="fill:none;stroke:#40A87B;stroke-width:4.7107;stroke-miterlimit:10;" d="M2144.493,1993.829
			c0,0,9.352-292.969,200.269-437.832"/>
		
			<line style="fill:none;stroke:#40A87B;stroke-width:4.7107;stroke-miterlimit:10;" x1="2261.026" y1="1640.945" x2="2265.796" y2="1539.92"/>
		
			<line style="fill:none;stroke:#40A87B;stroke-width:4.7107;stroke-miterlimit:10;" x1="2410.815" y1="1599.085" x2="2281.771" y2="1615.905"/>
		
			<line style="fill:none;stroke:#40A87B;stroke-width:4.7107;stroke-miterlimit:10;" x1="2360.63" y1="1685.307" x2="2224.189" y2="1701.203"/>
		
			<line style="fill:none;stroke:#40A87B;stroke-width:4.7107;stroke-miterlimit:10;" x1="2292.41" y1="1770.752" x2="2187.025" y2="1785.645"/>
		
			<line style="fill:none;stroke:#40A87B;stroke-width:4.7107;stroke-miterlimit:10;" x1="2176.916" y1="1690.914" x2="2201.07" y2="1749.6"/>
		
			<line style="fill:none;stroke:#40A87B;stroke-width:4.7107;stroke-miterlimit:10;" x1="2216.607" y1="1595.669" x2="2237.2" y2="1678.291"/>
		
			<line style="fill:none;stroke:#40A87B;stroke-width:4.7107;stroke-miterlimit:10;" x1="2154.367" y1="1788.885" x2="2173.611" y2="1827.241"/>
		
			<line style="fill:none;stroke:#40A87B;stroke-width:4.7107;stroke-miterlimit:10;" x1="2237.2" y1="1849.961" x2="2161.684" y2="1873.77"/>
	</g>
	<g>
		<path style="fill:#40A87B;" d="M471.643,1993.341c0,0-41.938-167.288-146.478-218.916s-216.117,19.054-187.785,93.379
			c24.43,64.089,124.889-14.714,203.051,16.275s90.483,109.262,90.483,109.262H471.643z"/>
		<path style="fill:none;stroke:#6ADB6A;stroke-width:4.7107;stroke-miterlimit:10;" d="M157.588,1823.233
			c0,0,112.199-63.941,195.443-4.826c83.244,59.115,109.589,174.934,109.589,174.934"/>
		
			<line style="fill:none;stroke:#6ADB6A;stroke-width:4.7107;stroke-miterlimit:10;" x1="175.685" y1="1793.329" x2="201.789" y2="1804.71"/>
		
			<line style="fill:none;stroke:#6ADB6A;stroke-width:4.7107;stroke-miterlimit:10;" x1="213.386" y1="1768.944" x2="265.38" y2="1793.329"/>
		
			<line style="fill:none;stroke:#6ADB6A;stroke-width:4.7107;stroke-miterlimit:10;" x1="291.503" y1="1768.944" x2="318.553" y2="1800.897"/>
		
			<line style="fill:none;stroke:#6ADB6A;stroke-width:4.7107;stroke-miterlimit:10;" x1="342.777" y1="1790.358" x2="354.936" y2="1819.785"/>
		
			<line style="fill:none;stroke:#6ADB6A;stroke-width:4.7107;stroke-miterlimit:10;" x1="188.737" y1="1863.951" x2="228.81" y2="1797.654"/>
		
			<line style="fill:none;stroke:#6ADB6A;stroke-width:4.7107;stroke-miterlimit:10;" x1="259.532" y1="1854.45" x2="296.286" y2="1795.423"/>
		
			<line style="fill:none;stroke:#6ADB6A;stroke-width:4.7107;stroke-miterlimit:10;" x1="321.966" y1="1845.402" x2="377.22" y2="1838.535"/>
		
			<line style="fill:none;stroke:#6ADB6A;stroke-width:4.7107;stroke-miterlimit:10;" x1="386.293" y1="1878.88" x2="417.965" y2="1889.279"/>
	</g>
	<g>
		<path style="fill:#6ADB6A;" d="M507.611,1993.829c0,0,29.592-560.742-238.237-488.482s208.922,374.473,208.517,488.482H507.611z"
			/>
		<path style="fill:none;stroke:#40A87B;stroke-width:4.7107;stroke-miterlimit:10;" d="M496.787,1993.829
			c0,0-9.352-292.969-200.269-437.832"/>
		
			<line style="fill:none;stroke:#40A87B;stroke-width:4.7107;stroke-miterlimit:10;" x1="380.254" y1="1640.945" x2="375.484" y2="1539.92"/>
		
			<line style="fill:none;stroke:#40A87B;stroke-width:4.7107;stroke-miterlimit:10;" x1="230.466" y1="1599.085" x2="359.51" y2="1615.905"/>
		
			<line style="fill:none;stroke:#40A87B;stroke-width:4.7107;stroke-miterlimit:10;" x1="280.65" y1="1685.307" x2="417.091" y2="1701.203"/>
		
			<line style="fill:none;stroke:#40A87B;stroke-width:4.7107;stroke-miterlimit:10;" x1="348.87" y1="1770.752" x2="454.255" y2="1785.645"/>
		
			<line style="fill:none;stroke:#40A87B;stroke-width:4.7107;stroke-miterlimit:10;" x1="464.364" y1="1690.914" x2="440.21" y2="1749.6"/>
		
			<line style="fill:none;stroke:#40A87B;stroke-width:4.7107;stroke-miterlimit:10;" x1="424.673" y1="1595.669" x2="404.081" y2="1678.291"/>
		
			<line style="fill:none;stroke:#40A87B;stroke-width:4.7107;stroke-miterlimit:10;" x1="486.913" y1="1788.885" x2="467.669" y2="1827.241"/>
		
			<line style="fill:none;stroke:#40A87B;stroke-width:4.7107;stroke-miterlimit:10;" x1="404.081" y1="1849.961" x2="479.597" y2="1873.77"/>
	</g>
	<g>
		<g>
			<rect x="468.083" y="652.815" style="fill:#BBDBF3;" width="1705.006" height="1247.296"/>
			<rect x="483.903" y="668.633" style="fill:#FFFFFF;" width="1673.368" height="1215.656"/>
			<rect x="478.528" y="661.023" style="fill:#BBDBF3;" width="1684.118" height="122.178"/>
			<g>
				
					<line style="fill:none;stroke:#FFFFFF;stroke-width:10.5692;stroke-linecap:round;stroke-linejoin:round;stroke-miterlimit:10;" x1="2051.493" y1="758.871" x2="2117.403" y2="692.962"/>
				
					<line style="fill:none;stroke:#FFFFFF;stroke-width:10.5692;stroke-linecap:round;stroke-linejoin:round;stroke-miterlimit:10;" x1="2117.403" y1="758.871" x2="2051.493" y2="692.962"/>
			</g>
		</g>
		<rect x="767.927" y="783.201" style="fill:#BBDBF3;" width="20.664" height="1101.088"/>
		<rect x="1514.109" y="783.201" style="fill:#BBDBF3;" width="20.663" height="1101.088"/>
		<g>
			<path style="fill:#98EB98;" d="M815.484,841.831v-5.68l32.792-17.747v8.676l-21.904,11.911l21.904,11.911v8.676L815.484,841.831z
				"/>
			<path style="fill:#98EB98;" d="M1454.423,1852.605v-8.676l21.904-11.911l-21.904-11.911v-8.676l32.792,17.747v5.68
				L1454.423,1852.605z"/>
			<rect x="860.438" y="832.292" style="fill:#98EB98;" width="130.409" height="13.398"/>
			<rect x="815.484" y="884.067" style="fill:#98EB98;" width="130.409" height="13.398"/>
			<rect x="843.263" y="920.134" style="fill:#98EB98;" width="130.409" height="13.398"/>
			<rect x="843.263" y="1019.402" style="fill:#98EB98;" width="130.409" height="13.398"/>
			<rect x="843.263" y="1050.109" style="fill:#98EB98;" width="130.409" height="13.398"/>
			<rect x="888.074" y="954.485" style="fill:#98EB98;" width="393.286" height="13.398"/>
			<rect x="888.074" y="1082.734" style="fill:#98EB98;" width="525.398" height="13.398"/>
			<rect x="888.074" y="1185.45" style="fill:#98EB98;" width="525.398" height="13.398"/>
			<rect x="937.489" y="1286.002" style="fill:#98EB98;" width="503.356" height="13.398"/>
			<rect x="888.074" y="1220.351" style="fill:#98EB98;" width="112.533" height="13.398"/>
			<rect x="888.074" y="1253.55" style="fill:#98EB98;" width="112.533" height="13.398"/>
			<rect x="888.074" y="1115.523" style="fill:#98EB98;" width="525.398" height="13.398"/>
			<rect x="888.074" y="1148.312" style="fill:#98EB98;" width="284.264" height="13.398"/>
			<rect x="843.263" y="1324.356" style="fill:#98EB98;" width="117.462" height="13.398"/>
			<rect x="843.263" y="1355.063" style="fill:#98EB98;" width="117.462" height="13.398"/>
			<rect x="883.626" y="1387.688" style="fill:#98EB98;" width="473.237" height="13.398"/>
			<rect x="883.626" y="1490.405" style="fill:#98EB98;" width="473.237" height="13.398"/>
			<rect x="928.135" y="1590.957" style="fill:#98EB98;" width="453.383" height="13.398"/>
			<rect x="883.626" y="1525.306" style="fill:#98EB98;" width="101.361" height="13.398"/>
			<rect x="883.626" y="1558.504" style="fill:#98EB98;" width="101.361" height="13.398"/>
			<rect x="883.626" y="1420.477" style="fill:#98EB98;" width="473.237" height="13.398"/>
			<rect x="883.626" y="1453.266" style="fill:#98EB98;" width="256.043" height="13.398"/>
			<rect x="928.404" y="1624.37" style="fill:#98EB98;" width="117.462" height="13.398"/>
			<rect x="928.404" y="1655.077" style="fill:#98EB98;" width="117.462" height="13.398"/>
			<rect x="968.767" y="1687.702" style="fill:#98EB98;" width="473.237" height="13.398"/>
			<rect x="968.767" y="1790.418" style="fill:#98EB98;" width="376.59" height="13.398"/>
			<rect x="968.767" y="1825.319" style="fill:#98EB98;" width="471.585" height="13.398"/>
			<rect x="968.767" y="1720.491" style="fill:#98EB98;" width="473.237" height="13.398"/>
			<rect x="968.767" y="1753.28" style="fill:#98EB98;" width="256.042" height="13.398"/>
			<rect x="888.074" y="985.361" style="fill:#98EB98;" width="120.595" height="13.398"/>
		</g>
		<g>
			<path style="fill:#E5F0F8;" d="M1549.312,841.831v-5.68l28.975-17.747v8.676l-19.355,11.911l19.355,11.911v8.676
				L1549.312,841.831z"/>
			<path style="fill:#E5F0F8;" d="M2113.887,1852.605v-8.676l19.355-11.911l-19.355-11.911v-8.676l28.975,17.747v5.68
				L2113.887,1852.605z"/>
			<rect x="1589.034" y="832.292" style="fill:#E5F0F8;" width="115.231" height="13.398"/>
			<rect x="1549.312" y="884.067" style="fill:#E5F0F8;" width="115.231" height="13.398"/>
			<rect x="1573.858" y="920.134" style="fill:#E5F0F8;" width="115.231" height="13.398"/>
			<rect x="1573.858" y="1019.402" style="fill:#E5F0F8;" width="115.231" height="13.398"/>
			<rect x="1573.858" y="1050.109" style="fill:#E5F0F8;" width="115.231" height="13.398"/>
			<rect x="1613.454" y="954.485" style="fill:#E5F0F8;" width="347.513" height="13.398"/>
			<rect x="1613.454" y="1082.734" style="fill:#E5F0F8;" width="464.248" height="13.398"/>
			<rect x="1613.454" y="1185.45" style="fill:#E5F0F8;" width="464.248" height="13.398"/>
			<rect x="1657.117" y="1286.002" style="fill:#E5F0F8;" width="444.771" height="13.398"/>
			<rect x="1613.454" y="1220.351" style="fill:#E5F0F8;" width="99.436" height="13.398"/>
			<rect x="1613.454" y="1253.55" style="fill:#E5F0F8;" width="99.436" height="13.398"/>
			<rect x="1613.454" y="1115.523" style="fill:#E5F0F8;" width="464.248" height="13.398"/>
			<rect x="1613.454" y="1148.312" style="fill:#E5F0F8;" width="251.179" height="13.398"/>
			<rect x="1573.858" y="1324.356" style="fill:#E5F0F8;" width="103.791" height="13.398"/>
			<rect x="1573.858" y="1355.063" style="fill:#E5F0F8;" width="103.791" height="13.398"/>
			<rect x="1609.523" y="1387.688" style="fill:#E5F0F8;" width="418.158" height="13.398"/>
			<rect x="1609.523" y="1490.405" style="fill:#E5F0F8;" width="418.158" height="13.398"/>
			<rect x="1648.851" y="1590.957" style="fill:#E5F0F8;" width="400.615" height="13.398"/>
			<rect x="1609.523" y="1525.306" style="fill:#E5F0F8;" width="89.564" height="13.398"/>
			<rect x="1609.523" y="1558.504" style="fill:#E5F0F8;" width="89.564" height="13.398"/>
			<rect x="1609.523" y="1420.477" style="fill:#E5F0F8;" width="418.158" height="13.398"/>
			<rect x="1609.523" y="1453.266" style="fill:#E5F0F8;" width="226.242" height="13.398"/>
			<rect x="1649.09" y="1624.37" style="fill:#E5F0F8;" width="103.791" height="13.398"/>
			<rect x="1649.09" y="1655.077" style="fill:#E5F0F8;" width="103.791" height="13.398"/>
			<rect x="1684.755" y="1687.702" style="fill:#E5F0F8;" width="418.158" height="13.398"/>
			<rect x="1684.755" y="1790.418" style="fill:#E5F0F8;" width="332.759" height="13.398"/>
			<rect x="1684.755" y="1825.319" style="fill:#E5F0F8;" width="416.698" height="13.398"/>
			<rect x="1684.755" y="1720.491" style="fill:#E5F0F8;" width="418.158" height="13.398"/>
			<rect x="1684.755" y="1753.28" style="fill:#E5F0F8;" width="226.242" height="13.398"/>
			<rect x="1613.454" y="985.361" style="fill:#E5F0F8;" width="106.559" height="13.398"/>
		</g>
		<rect x="511.93" y="832.292" style="fill:#E5F0F8;" width="220.41" height="13.398"/>
		<rect x="511.93" y="863.718" style="fill:#E5F0F8;" width="220.41" height="13.398"/>
		<rect x="511.93" y="895.144" style="fill:#E5F0F8;" width="220.41" height="13.398"/>
		<rect x="511.93" y="926.569" style="fill:#E5F0F8;" width="220.41" height="13.398"/>
		<rect x="511.93" y="957.995" style="fill:#E5F0F8;" width="220.41" height="13.398"/>
		<rect x="511.93" y="989.421" style="fill:#E5F0F8;" width="220.41" height="13.398"/>
		<rect x="511.93" y="1020.846" style="fill:#E5F0F8;" width="220.41" height="13.398"/>
		<rect x="511.93" y="1052.272" style="fill:#E5F0F8;" width="220.41" height="13.398"/>
		<rect x="511.93" y="1083.698" style="fill:#E5F0F8;" width="220.41" height="13.398"/>
		<rect x="511.93" y="1115.124" style="fill:#E5F0F8;" width="220.41" height="13.398"/>
		<rect x="511.93" y="1146.549" style="fill:#E5F0F8;" width="220.41" height="13.398"/>
		<rect x="511.93" y="1177.975" style="fill:#E5F0F8;" width="220.41" height="13.398"/>
		<rect x="511.93" y="1209.401" style="fill:#E5F0F8;" width="220.41" height="13.398"/>
		<rect x="511.93" y="1240.827" style="fill:#E5F0F8;" width="220.41" height="13.398"/>
		<rect x="511.93" y="1272.252" style="fill:#E5F0F8;" width="220.41" height="13.398"/>
		<rect x="511.93" y="1303.678" style="fill:#E5F0F8;" width="220.41" height="13.398"/>
		<rect x="511.93" y="1335.104" style="fill:#E5F0F8;" width="220.41" height="13.398"/>
		<rect x="511.93" y="1366.529" style="fill:#E5F0F8;" width="220.41" height="13.398"/>
		<rect x="511.93" y="1397.955" style="fill:#E5F0F8;" width="220.41" height="13.398"/>
		<rect x="511.93" y="1429.381" style="fill:#E5F0F8;" width="220.41" height="13.398"/>
		<rect x="511.93" y="1460.806" style="fill:#E5F0F8;" width="220.41" height="13.398"/>
		<rect x="511.93" y="1492.232" style="fill:#E5F0F8;" width="220.41" height="13.398"/>
		<rect x="511.93" y="1523.658" style="fill:#E5F0F8;" width="220.41" height="13.398"/>
		<rect x="511.93" y="1555.083" style="fill:#E5F0F8;" width="220.41" height="13.398"/>
		<rect x="511.93" y="1586.509" style="fill:#E5F0F8;" width="220.41" height="13.398"/>
		<rect x="511.93" y="1617.935" style="fill:#E5F0F8;" width="220.41" height="13.398"/>
		<rect x="511.93" y="1649.361" style="fill:#E5F0F8;" width="220.41" height="13.398"/>
		<rect x="511.93" y="1680.786" style="fill:#E5F0F8;" width="220.41" height="13.398"/>
		<rect x="511.93" y="1712.212" style="fill:#E5F0F8;" width="220.41" height="13.398"/>
		<rect x="511.93" y="1743.638" style="fill:#E5F0F8;" width="220.41" height="13.398"/>
		<rect x="511.93" y="1775.063" style="fill:#E5F0F8;" width="220.41" height="13.398"/>
	</g>
	<g>
		<path style="fill:#F74242;" d="M506.046,1490.056c0,34.977,51.796,97.043,49.415,166.105
			c-2.381,69.061-14.884,116.392,19.051,118.178c33.936,1.786,184.859,0,184.859,0h66.978c0,0,12.8-67.127-30.959-72.038
			c-43.759-4.912-91.424,1.443-99.574-25.452c-8.93-29.47-3.126-83.052-1.786-116.095c1.34-33.042,13.842-100.467-29.024-126.365
			c-42.866-25.898-93.143-18.167-124.579-3.572C515.423,1442.428,506.046,1459.395,506.046,1490.056z"/>
		<path style="fill:#BBDBF3;" d="M747.768,1990.222L747.768,1990.222c-2.651,0-4.8-2.149-4.8-4.8v-5.358c0-2.651,2.149-4.8,4.8-4.8
			l0,0c2.651,0,4.8,2.149,4.8,4.8v5.358C752.568,1988.073,750.419,1990.222,747.768,1990.222z"/>
		<polygon style="fill:#586773;" points="695.966,1953.84 747.768,1975.264 695.966,1966.343 		"/>
		<rect x="892.538" y="1645.388" style="fill:#586773;" width="13.156" height="346.437"/>
		<polygon style="fill:#A06753;" points="903.475,1957.441 946.087,1957.928 937.409,1893.899 887.615,1911.103 		"/>
		<polygon style="fill:#322A28;" points="902.023,1990.222 922.135,1990.127 923.364,1977.138 934.38,1990.069 981.829,1989.844 
			946.087,1957.928 903.475,1957.441 		"/>
		
			<line style="fill:none;stroke:#D1DDFF;stroke-width:2.6662;stroke-miterlimit:10;" x1="934.166" y1="1966.183" x2="953.136" y2="1966.033"/>
		
			<line style="fill:none;stroke:#D1DDFF;stroke-width:2.6662;stroke-miterlimit:10;" x1="938.784" y1="1972.699" x2="957.755" y2="1972.549"/>
		<path style="fill:#B86B76;" d="M848.508,1659.269c-22.529,8.086-34.237,32.906-26.151,55.435l56.688,204.012l69.854-10.863
			l-42.481-210.313l-0.017,0.003c-0.237-4.042-1.021-8.118-2.458-12.123C895.857,1662.891,871.038,1651.183,848.508,1659.269z"/>
		<path style="fill:#F9E181;" d="M806.968,1633.674L806.968,1633.674c-12.566,7.713-29.158,3.743-36.872-8.823l-57.979-94.455
			c-7.713-12.566-3.743-29.158,8.823-36.871h0c12.566-7.713,29.158-3.743,36.872,8.823l57.979,94.455
			C823.505,1609.369,819.534,1625.961,806.968,1633.674z"/>
		<path style="fill:#088CFF;" d="M629.583,1667.005c0,0-7.812,8.878-10.92,16.118c-3.108,7.24,33.994,3.247,33.994,3.247
			l-4.044-34.781L629.583,1667.005z"/>
		<path style="fill:#B86B76;" d="M907.078,1701.917L907.078,1701.917c0,24.864-20.343,45.208-45.207,45.208l-173.673,0
			c-24.864,0-45.207-20.343-45.207-45.208v0c0-24.864,20.343-45.208,45.208-45.208l173.672,0
			C886.735,1656.709,907.078,1677.052,907.078,1701.917z"/>
		<path style="fill:#322A28;" d="M728.155,1418.349c0,0,11.473-23.354-3.568-22.68
			C709.546,1396.344,728.155,1418.349,728.155,1418.349z"/>
		<path style="fill:#E7888B;" d="M876.453,1724.153L876.453,1724.153c-2.353,24.753-24.53,43.079-49.283,40.727l-172.893-16.435
			c-24.753-2.353-43.079-24.53-40.727-49.283v0c2.353-24.752,24.53-43.079,49.283-40.726l172.893,16.435
			C860.479,1677.223,878.806,1699.4,876.453,1724.153z"/>
		<path style="fill:#F9E181;" d="M667.954,1478.609l-46.915,22.095c0,0,10.431,119.927,11.51,133.138
			c1.078,13.211-2.966,33.163-2.966,33.163h112.43c0,0-1.348-64.708,6.201-82.772c5.114-12.238,8.628-19.682,5.662-33.702
			c-2.966-14.02-12.942-35.05-9.437-59.316l-28.849-11.594L667.954,1478.609z"/>
		<path style="fill:#A06753;" d="M715.602,1425.08v54.551c0,0,0,0.667-0.133,1.733c-0.56,4.453-3.44,15.891-18.264,15.731
			c-13.544-0.16-23.009-10.105-27.035-15.331c-1.467-1.866-2.213-3.146-2.213-3.146l6.826-53.538H715.602z"/>
		<polygon style="fill:#A06753;" points="744.932,1957.441 787.544,1957.928 796.59,1929.037 750.039,1925.495 		"/>
		<polygon style="fill:#824C3A;" points="715.591,1479.621 691.337,1448.655 715.591,1443.984 		"/>
		<path style="fill:#A06753;" d="M716.714,1458.159c-9.658,3.147-23.046-0.687-32.519-10.636
			c-9.474-9.949-30.758-47.196-2.349-64.545c28.441-17.34,45.236,11.37,45.971,15.814c0,0,0.282,15.667,0.453,26.708
			c0.064,2.809,0.107,5.305,0.136,7.185c-0.01,0.304,0.021,0.584,0.019,0.856C728.562,1442.191,726.363,1455.044,716.714,1458.159z"
			/>
		<path style="fill:#F9E181;" d="M554.219,1635.868L554.219,1635.868c-12.035-8.518-14.913-25.334-6.395-37.369l64.026-90.465
			c8.518-12.035,25.334-14.913,37.369-6.395l0,0c12.035,8.518,14.913,25.334,6.395,37.369l-64.026,90.465
			C583.07,1641.508,566.254,1644.386,554.219,1635.868z"/>
		<polygon style="fill:#322A28;" points="743.48,1990.222 763.592,1990.127 764.821,1977.138 775.837,1990.069 823.286,1989.844 
			787.544,1957.928 744.932,1957.441 		"/>
		<path style="fill:#322A28;" d="M729.954,1393.814c0.416,6.107-3.036,14.674-21.42,13.999
			c-18.384-0.675-21.589,8.265-19.734,15.686c0,0-3.879-4.151-2.867-9.328c0,0-6.578,7.549-3.879,15.269c0,0-4.7-7.409-7.579-1.952
			s0.949,9.771-2.82,22.118c0,0,1.851-12.237-4.586-18.75c-6.436-6.514-13.098-68.582,34.212-53.39
			C701.281,1377.466,728.238,1368.599,729.954,1393.814z"/>
		<path style="fill:#E7888B;" d="M841.709,1677.563c-23.573-4.156-46.052,11.584-50.209,35.156l-53.643,217.631l66.909,12.918
			l68.235-203.746l-0.016-0.005c1.8-3.627,3.142-7.555,3.88-11.745C881.022,1704.199,865.282,1681.72,841.709,1677.563z"/>
		
			<line style="fill:none;stroke:#D1DDFF;stroke-width:2.6662;stroke-miterlimit:10;" x1="775.623" y1="1966.183" x2="794.594" y2="1966.033"/>
		
			<line style="fill:none;stroke:#D1DDFF;stroke-width:2.6662;stroke-miterlimit:10;" x1="780.242" y1="1972.699" x2="799.212" y2="1972.549"/>
		<path style="fill:#A06753;" d="M679.625,1428.462c1.677,5.098,1.635,8.374-2.367,9.691c-4.003,1.317-9.546-0.841-11.223-5.939
			c-1.677-5.098,0.208-10.299,4.211-11.615C674.249,1419.282,677.948,1423.364,679.625,1428.462z"/>
		
			<path style="fill:none;stroke:#724638;stroke-width:0.6666;stroke-linecap:round;stroke-linejoin:round;stroke-miterlimit:10;" d="
			M669.481,1425.731c0,0,6.418-0.306,6.977,5.125c0,0-2.104-1.93-5.311-1.359"/>
		<path style="fill:#322A28;" d="M703.346,1421.096c-0.013,2.073,1.065,3.761,2.406,3.769c1.341,0.008,2.439-1.666,2.452-3.74
			c0.012-2.073-1.065-3.761-2.406-3.769C704.456,1417.348,703.358,1419.022,703.346,1421.096z"/>
		<path style="fill:#322A28;" d="M721.071,1419.593c-0.013,2.073,1.065,3.761,2.406,3.769c1.341,0.008,2.439-1.666,2.452-3.74
			s-1.065-3.761-2.406-3.769C722.181,1415.845,721.083,1417.519,721.071,1419.593z"/>
		<path style="fill:#FFFFFF;" d="M709.902,1445.173c2.446,0.849,5.117-0.446,5.966-2.893l-8.859-3.073
			C706.161,1441.654,707.456,1444.325,709.902,1445.173z"/>
		<path style="fill:none;stroke:#2C3447;stroke-width:0.9896;stroke-miterlimit:10;" d="M698.647,1416.901
			c0,0,4.194-5.142,9.034-3.244"/>
		<path style="fill:none;stroke:#2C3447;stroke-width:0.9896;stroke-miterlimit:10;" d="M721.474,1412.813
			c0,0,3.027-0.545,6.227,2.748"/>
		<path style="fill:none;stroke:#2C3447;stroke-width:0.9896;stroke-miterlimit:10;" d="M714.805,1419.852
			c0,0,0.176,10.275,6.198,11.568c0,0-1.929,1.734-4.336,2.438"/>
		<path style="fill:#A14C53;" d="M706.625,1432.404c-0.505,1.974-3.881,2.815-7.54,1.879c-3.659-0.936-6.216-3.296-5.711-5.27
			c0.505-1.974,3.881-2.816,7.54-1.879C704.573,1428.071,707.13,1430.43,706.625,1432.404z"/>
		<path style="fill:#A14C53;" d="M728.407,1432.685c-2.2,0.084-3.965-0.606-4.406-1.944c-0.574-1.747,1.278-3.929,4.269-5.241
			C728.335,1428.309,728.377,1430.805,728.407,1432.685z"/>
		<path style="fill:#A06753;" d="M767.659,1617.943c-6.434-14.822-0.994-31.595,12.089-37.275l119.285-33.914
			c3.728-2.004,7.913-4.459,11.13-6.914c7.479-5.707,29.622-18.814,31.486-15.611c1.864,3.204-11.487,15.259-9.602,15.962
			c1.885,0.703,13.744-5.854,18.578-9.051c4.834-3.197,14.093-11.719,17.276-10.558c3.183,1.161,2.739,6.132,2.739,6.132
			s3.135-3.685,5.057-1.284c1.922,2.401-1.571,9.328-1.571,9.328s1.535-2.229,2.998,0.945c1.463,3.174-7.272,11.694-7.272,11.694
			s2.25-0.965,3.031,1.594c0.781,2.559-11.929,12.483-22.996,16.474c-9.878,3.563-34.291,9.423-39.421,10.641l-107.323,58.46
			C790.062,1640.245,774.094,1632.765,767.659,1617.943z"/>
		
			<line style="fill:none;stroke:#2C3447;stroke-width:1.3705;stroke-miterlimit:10;" x1="630.361" y1="1593.252" x2="646.275" y2="1559.945"/>
		<path style="fill:none;stroke:#FFFFFF;stroke-width:1.1287;stroke-miterlimit:10;" d="M678.421,1439.853
			c-0.016,2.179-1.796,3.933-3.975,3.917c-2.179-0.016-3.933-1.796-3.917-3.975c0.016-2.179,1.796-3.933,3.975-3.917
			C676.684,1435.894,678.437,1437.673,678.421,1439.853z"/>
		<path style="fill:#A06753;" d="M542.076,1610.532c-0.649,16.145,10.479,29.823,24.73,30.397l123.484-11.436
			c4.2,0.523,27.16-1.73,33.157-5.798c3.565-2.418,9.056-2.984,14.197-0.309c5.822,3.03,10.86,5.114,12.758,3.28
			c2.436-2.355-11.952-8.608-11.575-9.74c0.38-1.139,7.908,2.859,11.547,4.718c4.064,2.076,8.662,2.367,9.43,0.933
			c1.922-3.59-6.43-8.623-6.43-8.623s11.513,6.33,12.843,3.099c0.771-1.871-4.544-5.922-8.905-8.239
			c-2.978-1.582-14.017-5.661-13.488-7.131c0.339-0.943,10.606,3.865,12.745,4.538c4.101,1.29,10.382,1.224,10.256-0.49
			c-0.195-2.669-23.255-14.104-37.043-11.195c-13.297,2.806-34.054,4.167-39.277,4.884l-121.338-17.201
			C554.917,1581.646,542.726,1594.387,542.076,1610.532z"/>
		<path style="fill:none;stroke:#2C3447;stroke-width:1.3705;stroke-miterlimit:10;" d="M747.826,1585.27
			c0,0,8.45-17.774,7.077-27.006c-1.372-9.232-8.893-34.176-9.885-41.837"/>
		
			<ellipse transform="matrix(0.9639 -0.2662 0.2662 0.9639 -338.9257 225.9441)" style="fill:#322A28;" cx="663.852" cy="1362.98" rx="16.972" ry="23.275"/>
		<rect x="653.1" y="1777.614" style="fill:#586773;" width="14.289" height="188.729"/>
		<rect x="624.523" y="1953.84" style="fill:#586773;" width="71.443" height="12.502"/>
		<rect x="639.555" y="1774.897" style="fill:#586773;" width="41.377" height="12.205"/>
		<path style="fill:#586773;" d="M572.721,1990.222L572.721,1990.222c2.651,0,4.8-2.149,4.8-4.8v-5.358c0-2.651-2.149-4.8-4.8-4.8
			l0,0c-2.651,0-4.8,2.149-4.8,4.8v5.358C567.921,1988.073,570.07,1990.222,572.721,1990.222z"/>
		<polygon style="fill:#586773;" points="624.523,1953.84 572.721,1975.264 624.523,1966.343 		"/>
		<rect x="515.814" y="1645.388" style="fill:#BBDBF3;" width="13.156" height="346.437"/>
		<path style="fill:#F74242;" d="M552.93,1699.653c0,0,166.333-21.031,200.19,9.326c29.794,26.714,6.251,65.36,6.251,65.36
			l-164.318,0.557L552.93,1699.653z"/>
		<rect x="672.164" y="1645.388" style="fill:#BBDBF3;" width="13.156" height="346.437"/>
		<rect x="1048.888" y="1645.388" style="fill:#586773;" width="13.156" height="346.437"/>
		<g>
			<path style="fill:#93ACBF;" d="M826.017,1599.421h183.335c3.648,0,6.672-2.828,6.916-6.468l7.595-113.166
				c0.269-4.002-2.905-7.396-6.916-7.396H833.612c-3.648,0-6.672,2.828-6.916,6.468l-7.595,113.166
				C818.833,1596.027,822.006,1599.421,826.017,1599.421z"/>
			<polygon style="fill:#93ACBF;" points="820.442,1596.591 825.569,1601.53 834.461,1587.849 821.675,1586.763 			"/>
			<polygon style="fill:#93ACBF;" points="1021.258,1473.896 1025.787,1478.103 1016.272,1484.679 1010.005,1477.994 
				1017.108,1473.896 			"/>
			<path style="fill:#586773;" d="M830.132,1603.268h183.335c3.648,0,6.672-2.828,6.916-6.468l7.595-113.166
				c0.269-4.002-2.905-7.396-6.916-7.396H837.727c-3.648,0-6.672,2.828-6.916,6.468l-7.594,113.166
				C822.948,1599.874,826.121,1603.268,830.132,1603.268z"/>
			<polygon style="fill:#586773;" points="904.608,1575.972 910.092,1629.249 954.192,1629.249 945.667,1546.449 907.308,1546.449 
							"/>
			<polygon style="fill:#93ACBF;" points="915.819,1629.259 959.945,1629.259 951.42,1546.439 907.294,1546.439 			"/>
			<path style="fill:#586773;" d="M876.708,1640.04h97.779v-5.892c0-2.7-2.189-4.889-4.889-4.889h-88.002
				c-2.7,0-4.889,2.189-4.889,4.889V1640.04z"/>
			<path style="fill:#93ACBF;" d="M894.007,1640.04h97.779v-5.892c0-2.7-2.189-4.889-4.889-4.889h-88.001
				c-2.7,0-4.889,2.189-4.889,4.889V1640.04z"/>
		</g>
		<rect x="616.275" y="1640.04" style="fill:#586773;" width="463.378" height="14.241"/>
		<rect x="497.734" y="1640.04" style="fill:#BBDBF3;" width="192.117" height="14.241"/>
		<path style="fill:#FFFFFF;" d="M856.091,1640.04H719.98v-4.392c0-1.886,1.529-3.415,3.416-3.415h129.28
			c1.886,0,3.415,1.529,3.415,3.415V1640.04z"/>
	</g>
	<path style="fill:#0775EF;" d="M2231.39,2033.417H379.845c-11.231,0-20.336-9.105-20.336-20.336v-2.39
		c0-11.231,9.105-20.336,20.336-20.336H2231.39c11.231,0,20.336,9.105,20.336,20.336v2.39
		C2251.726,2024.312,2242.621,2033.417,2231.39,2033.417z"/>
	<g>
		<path style="fill:#FFFFFF;" d="M1620.623,1955.685v-345.782c0-4.876,3.953-8.829,8.829-8.829h516.869
			c4.876,0,8.829,3.953,8.829,8.829v345.782c0,4.876-3.953,8.829-8.829,8.829h-516.869
			C1624.576,1964.514,1620.623,1960.561,1620.623,1955.685z"/>
		<g>
			<rect x="1641.842" y="1622.292" style="fill:#93ACBF;" width="492.091" height="157.794"/>
			<path style="fill:#BBDBF3;" d="M1729.825,1743.753h-64.812c-5.603,0-10.145-4.542-10.145-10.145v-69.087
				c0-5.603,4.542-10.145,10.145-10.145h64.812c5.603,0,10.145,4.542,10.145,10.145v69.087
				C1739.97,1739.21,1735.428,1743.753,1729.825,1743.753z"/>
			<rect x="1666.526" y="1668.171" style="fill:#93ACBF;" width="19.235" height="11.075"/>
			<rect x="1666.526" y="1685.075" style="fill:#93ACBF;" width="19.235" height="11.075"/>
			<rect x="1666.526" y="1701.979" style="fill:#93ACBF;" width="19.235" height="11.075"/>
			<rect x="1666.526" y="1718.883" style="fill:#93ACBF;" width="19.235" height="11.075"/>
			<rect x="1693.339" y="1673.708" style="fill:#2EC6FC;" width="37.499" height="16.904"/>
			<rect x="1693.339" y="1707.516" style="fill:#2EC6FC;" width="37.499" height="16.904"/>
			<path style="fill:#F74242;" d="M1667.303,1758.843c0,3.434-2.784,6.218-6.218,6.218c-3.434,0-6.217-2.784-6.217-6.218
				s2.784-6.218,6.217-6.218C1664.519,1752.625,1667.303,1755.409,1667.303,1758.843z"/>
			<path style="fill:#F9E181;" d="M1691.525,1758.843c0,3.434-2.784,6.218-6.218,6.218c-3.434,0-6.217-2.784-6.217-6.218
				s2.784-6.218,6.217-6.218C1688.742,1752.625,1691.525,1755.409,1691.525,1758.843z"/>
			<path style="fill:#6ADB6A;" d="M1715.748,1758.843c0,3.434-2.784,6.218-6.218,6.218c-3.434,0-6.218-2.784-6.218-6.218
				s2.784-6.218,6.218-6.218C1712.964,1752.625,1715.748,1755.409,1715.748,1758.843z"/>
			<path style="fill:#BBDBF3;" d="M1739.97,1758.843c0,3.434-2.784,6.218-6.218,6.218s-6.218-2.784-6.218-6.218
				s2.784-6.218,6.218-6.218S1739.97,1755.409,1739.97,1758.843z"/>
			<circle style="fill:#F74242;" cx="1661.085" cy="1642.852" r="6.218"/>
			<circle style="fill:#F9E181;" cx="1685.308" cy="1642.852" r="6.218"/>
			<circle style="fill:#6ADB6A;" cx="1709.53" cy="1642.852" r="6.218"/>
			<circle style="fill:#BBDBF3;" cx="1733.753" cy="1642.852" r="6.218"/>
			<path style="fill:#BBDBF3;" d="M1856.804,1743.753h-64.812c-5.603,0-10.145-4.542-10.145-10.145v-69.087
				c0-5.603,4.542-10.145,10.145-10.145h64.812c5.603,0,10.145,4.542,10.145,10.145v69.087
				C1866.949,1739.21,1862.407,1743.753,1856.804,1743.753z"/>
			<rect x="1793.505" y="1668.171" style="fill:#93ACBF;" width="19.236" height="11.075"/>
			<rect x="1793.505" y="1685.075" style="fill:#93ACBF;" width="19.236" height="11.075"/>
			<rect x="1793.505" y="1701.979" style="fill:#93ACBF;" width="19.236" height="11.075"/>
			<rect x="1793.505" y="1718.883" style="fill:#93ACBF;" width="19.236" height="11.075"/>
			<rect x="1820.318" y="1673.708" style="fill:#2EC6FC;" width="37.499" height="16.904"/>
			<rect x="1820.318" y="1707.516" style="fill:#2EC6FC;" width="37.499" height="16.904"/>
			<path style="fill:#F74242;" d="M1794.282,1758.843c0,3.434-2.784,6.218-6.218,6.218c-3.434,0-6.218-2.784-6.218-6.218
				s2.784-6.218,6.218-6.218C1791.499,1752.625,1794.282,1755.409,1794.282,1758.843z"/>
			<path style="fill:#F9E181;" d="M1818.505,1758.843c0,3.434-2.784,6.218-6.218,6.218s-6.218-2.784-6.218-6.218
				s2.784-6.218,6.218-6.218S1818.505,1755.409,1818.505,1758.843z"/>
			<path style="fill:#6ADB6A;" d="M1842.727,1758.843c0,3.434-2.784,6.218-6.218,6.218s-6.218-2.784-6.218-6.218
				s2.784-6.218,6.218-6.218S1842.727,1755.409,1842.727,1758.843z"/>
			<path style="fill:#BBDBF3;" d="M1866.949,1758.843c0,3.434-2.784,6.218-6.217,6.218c-3.434,0-6.218-2.784-6.218-6.218
				s2.784-6.218,6.218-6.218C1864.166,1752.625,1866.949,1755.409,1866.949,1758.843z"/>
			<circle style="fill:#F74242;" cx="1788.065" cy="1642.852" r="6.218"/>
			<circle style="fill:#F9E181;" cx="1812.287" cy="1642.852" r="6.218"/>
			<circle style="fill:#6ADB6A;" cx="1836.51" cy="1642.852" r="6.218"/>
			<circle style="fill:#BBDBF3;" cx="1860.732" cy="1642.852" r="6.218"/>
			<path style="fill:#BBDBF3;" d="M1983.783,1743.753h-64.812c-5.603,0-10.145-4.542-10.145-10.145v-69.087
				c0-5.603,4.542-10.145,10.145-10.145h64.812c5.603,0,10.145,4.542,10.145,10.145v69.087
				C1993.929,1739.21,1989.386,1743.753,1983.783,1743.753z"/>
			<rect x="1920.484" y="1668.171" style="fill:#93ACBF;" width="19.236" height="11.075"/>
			<rect x="1920.484" y="1685.075" style="fill:#93ACBF;" width="19.236" height="11.075"/>
			<rect x="1920.484" y="1701.979" style="fill:#93ACBF;" width="19.236" height="11.075"/>
			<rect x="1920.484" y="1718.883" style="fill:#93ACBF;" width="19.236" height="11.075"/>
			<rect x="1947.297" y="1673.708" style="fill:#2EC6FC;" width="37.499" height="16.904"/>
			<rect x="1947.297" y="1707.516" style="fill:#2EC6FC;" width="37.499" height="16.904"/>
			<path style="fill:#F74242;" d="M1921.261,1758.843c0,3.434-2.784,6.218-6.217,6.218s-6.218-2.784-6.218-6.218
				s2.784-6.218,6.218-6.218S1921.261,1755.409,1921.261,1758.843z"/>
			<path style="fill:#F9E181;" d="M1945.484,1758.843c0,3.434-2.784,6.218-6.217,6.218c-3.434,0-6.218-2.784-6.218-6.218
				s2.784-6.218,6.218-6.218C1942.7,1752.625,1945.484,1755.409,1945.484,1758.843z"/>
			<path style="fill:#6ADB6A;" d="M1969.706,1758.843c0,3.434-2.784,6.218-6.218,6.218c-3.434,0-6.217-2.784-6.217-6.218
				s2.784-6.218,6.217-6.218C1966.922,1752.625,1969.706,1755.409,1969.706,1758.843z"/>
			<path style="fill:#BBDBF3;" d="M1993.929,1758.843c0,3.434-2.784,6.218-6.218,6.218c-3.434,0-6.217-2.784-6.217-6.218
				s2.784-6.218,6.217-6.218C1991.145,1752.625,1993.929,1755.409,1993.929,1758.843z"/>
			<circle style="fill:#F74242;" cx="1915.044" cy="1642.852" r="6.218"/>
			<circle style="fill:#F9E181;" cx="1939.266" cy="1642.852" r="6.218"/>
			<circle style="fill:#6ADB6A;" cx="1963.489" cy="1642.852" r="6.218"/>
			<circle style="fill:#BBDBF3;" cx="1987.711" cy="1642.852" r="6.218"/>
			<path style="fill:#BBDBF3;" d="M2110.763,1743.753h-64.812c-5.603,0-10.145-4.542-10.145-10.145v-69.087
				c0-5.603,4.542-10.145,10.145-10.145h64.812c5.603,0,10.145,4.542,10.145,10.145v69.087
				C2120.908,1739.21,2116.366,1743.753,2110.763,1743.753z"/>
			<rect x="2047.463" y="1668.171" style="fill:#93ACBF;" width="19.236" height="11.075"/>
			<rect x="2047.463" y="1685.075" style="fill:#93ACBF;" width="19.236" height="11.075"/>
			<rect x="2047.463" y="1701.979" style="fill:#93ACBF;" width="19.236" height="11.075"/>
			<rect x="2047.463" y="1718.883" style="fill:#93ACBF;" width="19.236" height="11.075"/>
			<rect x="2074.277" y="1673.708" style="fill:#2EC6FC;" width="37.499" height="16.904"/>
			<rect x="2074.277" y="1707.516" style="fill:#2EC6FC;" width="37.499" height="16.904"/>
			<path style="fill:#F74242;" d="M2048.24,1758.843c0,3.434-2.783,6.218-6.217,6.218c-3.434,0-6.218-2.784-6.218-6.218
				s2.784-6.218,6.218-6.218C2045.457,1752.625,2048.24,1755.409,2048.24,1758.843z"/>
			<path style="fill:#F9E181;" d="M2072.463,1758.843c0,3.434-2.784,6.218-6.217,6.218c-3.434,0-6.218-2.784-6.218-6.218
				s2.784-6.218,6.218-6.218C2069.679,1752.625,2072.463,1755.409,2072.463,1758.843z"/>
			<path style="fill:#6ADB6A;" d="M2096.685,1758.843c0,3.434-2.784,6.218-6.217,6.218c-3.434,0-6.218-2.784-6.218-6.218
				s2.784-6.218,6.218-6.218C2093.902,1752.625,2096.685,1755.409,2096.685,1758.843z"/>
			<path style="fill:#BBDBF3;" d="M2120.908,1758.843c0,3.434-2.784,6.218-6.218,6.218s-6.217-2.784-6.217-6.218
				s2.783-6.218,6.217-6.218S2120.908,1755.409,2120.908,1758.843z"/>
			<circle style="fill:#F74242;" cx="2042.023" cy="1642.852" r="6.218"/>
			<circle style="fill:#F9E181;" cx="2066.246" cy="1642.852" r="6.218"/>
			<circle style="fill:#6ADB6A;" cx="2090.468" cy="1642.852" r="6.218"/>
			<circle style="fill:#BBDBF3;" cx="2114.69" cy="1642.852" r="6.218"/>
		</g>
		<g>
			<rect x="1641.842" y="1779.402" style="fill:#586773;" width="492.091" height="163.894"/>
			<g>
				<rect x="1654.868" y="1797.037" style="fill:#F74242;" width="139.414" height="13.989"/>
				<rect x="1654.868" y="1819.964" style="fill:#F9E181;" width="139.414" height="13.989"/>
				<rect x="1654.868" y="1842.891" style="fill:#F9ECB8;" width="139.414" height="13.989"/>
				<rect x="1654.868" y="1865.818" style="fill:#6ADB6A;" width="139.414" height="13.989"/>
				<rect x="1654.868" y="1888.745" style="fill:#40A87B;" width="139.414" height="13.989"/>
				<rect x="1654.868" y="1911.672" style="fill:#2EC6FC;" width="139.414" height="13.989"/>
			</g>
			<path style="fill:#F74242;" d="M1832.332,1803.254c0,3.434-2.784,6.218-6.218,6.218s-6.218-2.784-6.218-6.218
				s2.784-6.218,6.218-6.218S1832.332,1799.82,1832.332,1803.254z"/>
			<path style="fill:#F74242;" d="M1856.554,1803.254c0,3.434-2.784,6.218-6.217,6.218c-3.434,0-6.218-2.784-6.218-6.218
				s2.784-6.218,6.218-6.218C1853.771,1797.037,1856.554,1799.82,1856.554,1803.254z"/>
			<path style="fill:#F74242;" d="M1880.777,1803.254c0,3.434-2.784,6.218-6.217,6.218c-3.434,0-6.218-2.784-6.218-6.218
				s2.784-6.218,6.218-6.218C1877.993,1797.037,1880.777,1799.82,1880.777,1803.254z"/>
			<path style="fill:#F9E181;" d="M1904.999,1803.254c0,3.434-2.784,6.218-6.217,6.218c-3.434,0-6.218-2.784-6.218-6.218
				s2.784-6.218,6.218-6.218C1902.216,1797.037,1904.999,1799.82,1904.999,1803.254z"/>
			<path style="fill:#F9E181;" d="M1928.871,1803.254c0,3.434-2.784,6.218-6.218,6.218s-6.218-2.784-6.218-6.218
				s2.784-6.218,6.218-6.218S1928.871,1799.82,1928.871,1803.254z"/>
			<path style="fill:#F9E181;" d="M1953.094,1803.254c0,3.434-2.784,6.218-6.217,6.218c-3.434,0-6.218-2.784-6.218-6.218
				s2.784-6.218,6.218-6.218C1950.31,1797.037,1953.094,1799.82,1953.094,1803.254z"/>
			<path style="fill:#6ADB6A;" d="M1977.316,1803.254c0,3.434-2.784,6.218-6.217,6.218c-3.434,0-6.218-2.784-6.218-6.218
				s2.784-6.218,6.218-6.218C1974.532,1797.037,1977.316,1799.82,1977.316,1803.254z"/>
			<path style="fill:#6ADB6A;" d="M2001.539,1803.254c0,3.434-2.784,6.218-6.218,6.218s-6.217-2.784-6.217-6.218
				s2.784-6.218,6.217-6.218S2001.539,1799.82,2001.539,1803.254z"/>
			<path style="fill:#F74242;" d="M1832.332,1823.22c0,3.434-2.784,6.218-6.218,6.218s-6.218-2.784-6.218-6.218
				s2.784-6.218,6.218-6.218S1832.332,1819.786,1832.332,1823.22z"/>
			<path style="fill:#F74242;" d="M1856.554,1823.22c0,3.434-2.784,6.218-6.217,6.218c-3.434,0-6.218-2.784-6.218-6.218
				s2.784-6.218,6.218-6.218C1853.771,1817.002,1856.554,1819.786,1856.554,1823.22z"/>
			<path style="fill:#F74242;" d="M1880.777,1823.22c0,3.434-2.784,6.218-6.217,6.218c-3.434,0-6.218-2.784-6.218-6.218
				s2.784-6.218,6.218-6.218C1877.993,1817.002,1880.777,1819.786,1880.777,1823.22z"/>
			<path style="fill:#F9E181;" d="M1904.999,1823.22c0,3.434-2.784,6.218-6.217,6.218c-3.434,0-6.218-2.784-6.218-6.218
				s2.784-6.218,6.218-6.218C1902.216,1817.002,1904.999,1819.786,1904.999,1823.22z"/>
			<path style="fill:#F9E181;" d="M1928.871,1823.22c0,3.434-2.784,6.218-6.218,6.218s-6.218-2.784-6.218-6.218
				s2.784-6.218,6.218-6.218S1928.871,1819.786,1928.871,1823.22z"/>
			<path style="fill:#F9E181;" d="M1953.094,1823.22c0,3.434-2.784,6.218-6.217,6.218c-3.434,0-6.218-2.784-6.218-6.218
				s2.784-6.218,6.218-6.218C1950.31,1817.002,1953.094,1819.786,1953.094,1823.22z"/>
			<path style="fill:#6ADB6A;" d="M1977.316,1823.22c0,3.434-2.784,6.218-6.217,6.218c-3.434,0-6.218-2.784-6.218-6.218
				s2.784-6.218,6.218-6.218C1974.532,1817.002,1977.316,1819.786,1977.316,1823.22z"/>
			<path style="fill:#6ADB6A;" d="M2001.539,1823.22c0,3.434-2.784,6.218-6.218,6.218s-6.217-2.784-6.217-6.218
				s2.784-6.218,6.217-6.218S2001.539,1819.786,2001.539,1823.22z"/>
			<circle style="fill:#F74242;" cx="1826.115" cy="1851.366" r="6.218"/>
			<circle style="fill:#F74242;" cx="1850.337" cy="1851.366" r="6.218"/>
			<circle style="fill:#F9E181;" cx="1874.559" cy="1851.366" r="6.218"/>
			<circle style="fill:#F9E181;" cx="1898.782" cy="1851.366" r="6.218"/>
			<circle style="fill:#6ADB6A;" cx="1922.654" cy="1851.366" r="6.218"/>
			<circle style="fill:#6ADB6A;" cx="1946.876" cy="1851.366" r="6.218"/>
			<circle style="fill:#6ADB6A;" cx="1971.099" cy="1851.366" r="6.218"/>
			<circle style="fill:#6ADB6A;" cx="1995.321" cy="1851.366" r="6.218"/>
			<circle style="fill:#F74242;" cx="1826.115" cy="1871.332" r="6.218"/>
			<circle style="fill:#F9E181;" cx="1850.337" cy="1871.332" r="6.218"/>
			<circle style="fill:#F9E181;" cx="1874.559" cy="1871.332" r="6.218"/>
			<circle style="fill:#F9E181;" cx="1898.782" cy="1871.332" r="6.218"/>
			<circle style="fill:#F9E181;" cx="1922.654" cy="1871.332" r="6.218"/>
			<circle style="fill:#F9E181;" cx="1946.876" cy="1871.332" r="6.218"/>
			<circle style="fill:#6ADB6A;" cx="1971.099" cy="1871.332" r="6.218"/>
			<circle style="fill:#6ADB6A;" cx="1995.321" cy="1871.332" r="6.218"/>
			<circle style="fill:#6ADB6A;" cx="1826.115" cy="1899.478" r="6.218"/>
			<circle style="fill:#6ADB6A;" cx="1850.337" cy="1899.478" r="6.218"/>
			<circle style="fill:#F9E181;" cx="1874.559" cy="1899.478" r="6.218"/>
			<circle style="fill:#F9E181;" cx="1898.782" cy="1899.478" r="6.218"/>
			<circle style="fill:#F9E181;" cx="1922.654" cy="1899.478" r="6.218"/>
			<circle style="fill:#BBDBF3;" cx="1946.876" cy="1899.478" r="6.218"/>
			<circle style="fill:#BBDBF3;" cx="1971.099" cy="1899.478" r="6.218"/>
			<circle style="fill:#BBDBF3;" cx="1995.321" cy="1899.478" r="6.218"/>
			<circle style="fill:#6ADB6A;" cx="1826.115" cy="1919.444" r="6.218"/>
			<circle style="fill:#6ADB6A;" cx="1850.337" cy="1919.444" r="6.218"/>
			<circle style="fill:#F9E181;" cx="1874.559" cy="1919.444" r="6.218"/>
			<circle style="fill:#F9E181;" cx="1898.782" cy="1919.444" r="6.218"/>
			<circle style="fill:#BBDBF3;" cx="1922.654" cy="1919.444" r="6.218"/>
			<circle style="fill:#BBDBF3;" cx="1946.876" cy="1919.444" r="6.218"/>
			<circle style="fill:#BBDBF3;" cx="1971.099" cy="1919.444" r="6.218"/>
			<circle style="fill:#BBDBF3;" cx="1995.321" cy="1919.444" r="6.218"/>
			<path style="fill:#BBDBF3;" d="M2110.763,1903.954h-64.812c-5.603,0-10.145-4.542-10.145-10.145v-69.087
				c0-5.603,4.542-10.145,10.145-10.145h64.812c5.603,0,10.145,4.542,10.145,10.145v69.087
				C2120.908,1899.412,2116.366,1903.954,2110.763,1903.954z"/>
			<rect x="2047.463" y="1828.373" style="fill:#89A5C7;" width="19.236" height="11.075"/>
			<rect x="2047.463" y="1845.277" style="fill:#89A5C7;" width="19.236" height="11.075"/>
			<rect x="2047.463" y="1862.181" style="fill:#89A5C7;" width="19.236" height="11.075"/>
			<rect x="2047.463" y="1879.084" style="fill:#89A5C7;" width="19.236" height="11.075"/>
			<rect x="2074.277" y="1833.91" style="fill:#2EC6FC;" width="37.499" height="16.904"/>
			<rect x="2074.277" y="1867.718" style="fill:#2EC6FC;" width="37.499" height="16.904"/>
			<path style="fill:#F74242;" d="M2048.24,1919.045c0,3.434-2.783,6.218-6.217,6.218c-3.434,0-6.218-2.784-6.218-6.218
				c0-3.434,2.784-6.218,6.218-6.218C2045.457,1912.827,2048.24,1915.611,2048.24,1919.045z"/>
			<path style="fill:#F9E181;" d="M2072.463,1919.045c0,3.434-2.784,6.218-6.217,6.218c-3.434,0-6.218-2.784-6.218-6.218
				c0-3.434,2.784-6.218,6.218-6.218C2069.679,1912.827,2072.463,1915.611,2072.463,1919.045z"/>
			<path style="fill:#6ADB6A;" d="M2096.685,1919.045c0,3.434-2.784,6.218-6.217,6.218c-3.434,0-6.218-2.784-6.218-6.218
				c0-3.434,2.784-6.218,6.218-6.218C2093.902,1912.827,2096.685,1915.611,2096.685,1919.045z"/>
			<path style="fill:#BBDBF3;" d="M2120.908,1919.045c0,3.434-2.784,6.218-6.218,6.218s-6.217-2.784-6.217-6.218
				c0-3.434,2.783-6.218,6.217-6.218S2120.908,1915.611,2120.908,1919.045z"/>
			<circle style="fill:#F74242;" cx="2042.023" cy="1803.053" r="6.218"/>
			<circle style="fill:#F9E181;" cx="2066.246" cy="1803.053" r="6.218"/>
			<circle style="fill:#6ADB6A;" cx="2090.468" cy="1803.053" r="6.218"/>
			<circle style="fill:#BBDBF3;" cx="2114.69" cy="1803.053" r="6.218"/>
		</g>
		<rect x="1647.675" y="1964.514" style="fill:#FFFFFF;" width="49.744" height="25.841"/>
		
			<rect x="2078.357" y="1964.514" transform="matrix(-1 -1.224647e-16 1.224647e-16 -1 4206.4575 3954.8699)" style="fill:#FFFFFF;" width="49.744" height="25.841"/>
		<polygon style="opacity:0.4;fill:#FFFFFF;" points="1823.487,1632.916 1720.036,1932.677 1655.285,1932.677 1758.736,1632.916 		
			"/>
		<polygon style="opacity:0.4;fill:#FFFFFF;" points="1875.999,1632.916 1772.585,1932.677 1740.209,1932.677 1843.66,1632.916 		
			"/>
		<polygon style="opacity:0.4;fill:#FFFFFF;" points="2123.324,1632.916 2123.324,1688.459 2039.036,1932.677 1950.181,1932.677 
			2053.632,1632.916 		"/>
		<polygon style="opacity:0.4;fill:#FFFFFF;" points="2029.117,1632.916 1925.666,1932.677 1881.238,1932.677 1984.69,1632.916 		
			"/>
	</g>
	<g>
		<polygon style="fill:#FDAE97;" points="1856.31,995.773 1909.991,994.861 1907.179,938.494 1905.837,911.539 1905.76,910.197 
			1863.758,892.539 1862.39,911.59 1861.376,925.473 		"/>
		<path style="fill:#088CFC;" d="M1961.292,1170.252l22.574,186.867c0.709,4.724,0.687,9.634-0.277,14.591
			c-4.535,23.333-27.127,38.571-50.46,34.036c-23.333-4.535-32.262-22.552-36.453-49.343
			c-8.045-51.43-36.141-205.735-36.141-205.735L1961.292,1170.252z"/>
		<polygon style="fill:#088CFC;" points="1814.921,1160.847 1897.843,1166.41 1897.429,1258.279 1887.588,1272.834 
			1878.464,1361.399 1794.527,1354.689 		"/>
		<path style="fill:#F74242;" d="M2029.506,1119.125l-0.281,0.187c-12.37,8.231-29.226,4.845-37.458-7.526l-67.068-100.793
			c-8.231-12.37-4.845-29.226,7.526-37.458l0.281-0.187c12.37-8.231,29.226-4.845,37.458,7.526l67.068,100.793
			C2045.263,1094.038,2041.876,1110.894,2029.506,1119.125z"/>
		<polygon style="fill:#E89780;" points="1665.762,992.55 1694.241,1020.421 1723.013,1002.906 1704.502,974.083 1666.991,975.295 
					"/>
		<path style="fill:#F74242;" d="M1776.345,1124.633c-13.404,7.795-30.082,4.478-36.926-7.37l-33.874-61.905l-11.948-21.943
			l-12.504-22.84l20.794-14.372l14.764-10.196l1.425-1.006l15.175,22.517l13.937,20.624l41.007,60.732
			C1795.039,1100.723,1789.75,1116.838,1776.345,1124.633z"/>
		<path style="fill:#FDAE97;" d="M1882.454,972.2c-19.696,0.434-28.085-9.357-30.616-13.203l7.365-3.328l48.708-2.451l5.852,1.873
			C1911.293,959.69,1902.577,971.757,1882.454,972.2z"/>
		<path style="fill:#F74242;" d="M1812.553,1094.747l-1.166,80.55h151.626l-1.797-203.075l-52.032-18.802
			c-0.583,1.069-1.214,2.186-1.992,3.352l-0.194,0.243c-2.818,3.595-8.21,6.996-23.32,7.336
			c-12.583,0.292-18.753-1.457-22.251-3.741l-0.049-0.049c-1.895-1.263-3.012-2.769-3.887-4.129l-49.117,10.834l3.304,102.509
			L1812.553,1094.747z"/>
		<path style="fill:#088CFC;" d="M1999.586,1546.791l-77.999-0.054l-23.511-181.51c-2.455-23.654,14.693-44.835,38.316-47.325
			c23.654-2.455,44.802,14.69,47.292,38.314c0.224,2.053,0.25,4.059,0.175,6.092l13.578,159.315L1999.586,1546.791
			L1999.586,1546.791z"/>
		<path style="fill:#F74242;" d="M1749.172,1125.819L1749.172,1125.819c13.444,6.853,30.05,1.46,36.903-11.984l55.07-108.039
			c6.852-13.444,1.46-30.05-11.984-36.902l0,0c-13.444-6.852-30.05-1.46-36.903,11.984l-55.069,108.039
			C1730.335,1102.36,1735.728,1118.967,1749.172,1125.819z"/>
		<path style="fill:#D6EAFF;" d="M1861.428,960.61l22.251,35.174l23.32-38.769c-2.818,3.595-8.21,6.996-23.32,7.336
			C1871.095,964.643,1864.925,962.894,1861.428,960.61z"/>
		<g>
			<path style="fill:#93ACBF;" d="M2119.311,1360.045c-11.551-6.641-38.643-18.675-53.123-25.775
				c-20.987-10.289-33.599-49.9,1.571-81.008c28.549-25.252,72.921,9.614,89.211,21.473c2.565,1.867,6.076-0.275,5.64-3.417
				c-1.246-8.984-6.543-26.118-22.687-43.092c-29.577-31.098-56.603-36.883-77.667-34.31c-4.464,0.545-9.067,0.497-13.574,0.07
				c-17.597-1.666-34.144-9.14-47.713-20.467l-321.037-267.991c-42.99-39.83-19.637-78.829-55.46-114.649
				c-26.582-26.579-76.684-24.672-97.746-22.682c-3.208,0.303-4.155,4.526-1.362,6.132c11.551,6.641,31.539,13.605,46.019,20.704
				c20.987,10.289,30.59,55.276-4.579,86.384c-28.549,25.252-66.848-5.366-83.138-17.226c-2.565-1.867-6.076,0.275-5.64,3.417
				c1.246,8.984,6.234,24.217,22.378,41.191c29.577,31.098,60.952,34.232,82.016,31.659c8.929-1.091,18.547,1.023,26.875,3.953
				c11.187,3.935,21.458,10.104,30.562,17.704l331.132,276.418c7,5.843,12.613,13.215,16.192,21.602
				c12.327,28.885,2.089,56.341,28.466,82.716c26.582,26.579,81.241,25.316,102.302,23.326
				C2121.156,1365.874,2122.104,1361.651,2119.311,1360.045z"/>
			<path style="fill:#586773;" d="M1993.684,1225.276l-357.507-298.435c-5.113-4.268-5.804-11.943-1.536-17.056v0
				c4.268-5.113,11.943-5.804,17.056-1.536l357.507,298.435c5.113,4.268,5.804,11.943,1.536,17.056l0,0
				C2006.473,1228.853,1998.797,1229.544,1993.684,1225.276z"/>
		</g>
		<path style="fill:#FDAE97;" d="M1840.701,1132.204c0.322,2.364,14.457,5.4,24.951,4.282c8.893-0.936,29.164-5.304,35.13-6.633
			l-2.236-28.363c-3.585-0.176-7.531-0.499-10.883-1.198c-8.259-1.655-31.225-3.597-31.477-0.261
			c-0.277,3.302,15.216,7.807,13.965,9.111c-1.252,1.305-13.378,0.643-18.507-0.053c-5.163-0.672-15.944-3.927-18.049-1.755
			c-2.139,2.196,0.195,6.016,0.195,6.016s-3.983-1.722-4.602,0.961s4.906,6.91,4.906,6.91s-2.083-1.202-2.033,1.917
			c0.073,3.152,10.437,6.605,10.437,6.605S1840.322,1129.831,1840.701,1132.204z"/>
		<path style="fill:#088CFC;" d="M1878.763,1358.135l-20.03,188.656h-76.628l12.286-189.689c-0.1-1.999,0.467-4.232,0.633-6.298
			c2.099-23.692,20.926-41.386,44.618-39.32C1863.302,1313.583,1880.829,1334.443,1878.763,1358.135z"/>
		<path style="fill:#F74242;" d="M1893.854,1092.366l27.125-5.461l24.56-4.914l65.522-13.177
			c13.562-1.805,26.354,9.263,28.442,24.641c2.055,15.371-7.369,29.449-20.939,31.287l-68.396,5.047l-24.853,1.861l-25.685,1.901
			L1893.854,1092.366z"/>
		<polygon style="fill:#EA9D85;" points="1859.896,946.016 1890.071,924.013 1861.376,925.473 		"/>
		<path style="fill:#FDAE97;" d="M1864.379,861.282c0,0-4.781,17.395-8.172,29.735l-2.803,10.199
			c-2.215,8.058-3.24,20.633,5.069,25.891c8.28,5.25,21.776,4.897,33.049-2.142c11.281-7.069,42.252-44.354,19.784-67.447
			C1888.809,834.417,1866.148,857.291,1864.379,861.282z"/>
		<path style="fill:#322A28;" d="M1906.39,922.656c0,0-14.576-22.412-6.634-35.172c7.943-12.76,0-15.965-5.574-14.989
			c-5.574,0.975-15.267,0.697-19.199-0.836c0,0,11.814,0.279,16.83-2.648c0,0-23.288,1.908-28.366-4.341l-1.249,4.543
			c0,0-8.392-19.764,4.227-24.362s17.862,0.61,17.862,0.61s-4.015-8.082,1.755-9.615c5.77-1.533,11.065,10.172,11.065,10.172
			s8.082-10.033,16.443-0.139c8.361,9.894,4.877,18.951,4.877,18.951s9.754,8.082,5.016,20.763
			C1918.708,898.274,1907.45,910.25,1906.39,922.656z"/>
		<g>
			<path style="fill:#FDAE97;" d="M1899.543,906.401c-4.5,4.062-6.293,7.299-3.104,10.831c3.189,3.533,9.835,4.521,14.335,0.458
				c4.5-4.062,5.563-10.219,2.373-13.752C1909.959,900.406,1904.043,902.339,1899.543,906.401z"/>
		</g>
		<path style="fill:#332B27;" d="M1882.249,890.532c-0.514,1.869-1.91,3.115-3.12,2.783c-1.209-0.332-1.773-2.117-1.259-3.986
			c0.514-1.869,1.91-3.115,3.12-2.783C1882.199,886.878,1882.763,888.663,1882.249,890.532z"/>
		<path style="fill:#332B27;" d="M1859.64,884.318c-0.514,1.869,0.05,3.654,1.259,3.986c1.209,0.332,2.606-0.914,3.12-2.783
			c0.514-1.869-0.05-3.654-1.259-3.986C1861.551,881.203,1860.154,882.449,1859.64,884.318z"/>
		<path style="fill:#E89780;" d="M1875.377,901.918c0.103,1.875,3.21,3.229,6.938,3.024c3.729-0.205,6.668-1.892,6.565-3.767
			c-0.103-1.875-3.21-3.229-6.938-3.024C1878.213,898.356,1875.274,900.042,1875.377,901.918z"/>
		<path style="fill:#E89780;" d="M1856.207,891.017l-1.822,6.631c2.705,1.095,5.207,0.951,5.995-0.399
			C1861.269,895.639,1859.411,892.857,1856.207,891.017z"/>
		
			<path style="fill:none;stroke:#EA9D85;stroke-width:1.4004;stroke-linecap:round;stroke-linejoin:round;stroke-miterlimit:10;" d="
			M1907.377,912.986c-2.894-1.415-5.563-1.529-5.563-1.529c4.12-4.344,7.931-2.659,7.931-2.659"/>
		<path style="fill:none;stroke:#332B27;stroke-width:0.8958;stroke-miterlimit:10;" d="M1875.01,911.374
			c0,0-4.992,5.438-12.81,1.693"/>
		<path style="fill:none;stroke:#332B27;stroke-width:0.8958;stroke-miterlimit:10;" d="M1872.596,889.27l-7.406,10.802
			c-0.75,1.094-0.659,2.559,0.222,3.552l1.364,1.537l1.397,1.575"/>
		<path style="fill:none;stroke:#332B27;stroke-width:0.8958;stroke-miterlimit:10;" d="M1886.044,887.484
			c0,0-2.915-5.056-7.942-5.065"/>
		<path style="fill:none;stroke:#332B27;stroke-width:0.8958;stroke-miterlimit:10;" d="M1859.203,877.956
			c0,0,4.03-2.162,7.863,1.091"/>
		<polygon style="fill:#FFFFFF;" points="1859.324,953.95 1883.674,964.369 1870.878,979.912 1856.31,956.942 		"/>
		<polygon style="fill:#FFFFFF;" points="1907.835,951.645 1883.674,964.369 1895.197,979.257 1909.991,953.737 		"/>
		<polygon style="fill:#FDAE97;" points="1847.677,1576.274 1849.731,1546.791 1792.319,1546.791 1790.077,1576.274 		"/>
		<polygon style="fill:#EA9D85;" points="1791.303,1560.148 1849.731,1546.791 1792.319,1546.791 		"/>
		<polygon style="fill:#FDAE97;" points="1932.894,1576.274 1930.692,1546.743 1989.497,1546.791 1990.494,1576.274 		"/>
		<path style="fill:#FDAE97;" d="M1667.393,970.196l8.341,0.204c2.241,0.055,4.186,1.615,4.871,3.908l5.244,17.544
			c1.098,3.675-1.425,7.516-5.019,7.64l-9.061,0.313c-2.444,0.084-4.6-1.632-5.235-4.169l-4.524-18.061
			C1661.072,973.829,1663.786,970.108,1667.393,970.196z"/>
		<polygon style="fill:#EA9D85;" points="1931.92,1563.214 1989.497,1546.791 1930.692,1546.743 		"/>
		<path style="fill:#322A28;" d="M1916.618,863.994c0,0,6.828-3.623,13.656,2.09c0,0-11.705-3.344-13.656,1.115
			C1914.667,871.659,1916.618,863.994,1916.618,863.994z"/>
		
			<polyline style="fill:none;stroke:#FFFFFF;stroke-width:0.7287;stroke-linecap:round;stroke-linejoin:round;stroke-miterlimit:10;" points="
			1912.842,959.688 1883.674,1006.605 1854.893,962.716 		"/>
		
			<line style="fill:none;stroke:#322A28;stroke-width:0.7287;stroke-linecap:round;stroke-linejoin:round;stroke-miterlimit:10;" x1="1968.703" y1="1077.124" x2="1979.82" y2="1075.096"/>
		
			<line style="fill:none;stroke:#322A28;stroke-width:0.7287;stroke-linecap:round;stroke-linejoin:round;stroke-miterlimit:10;" x1="1962.056" y1="1067.135" x2="1955.264" y2="1056.927"/>
		<path style="fill:#322A28;" d="M1761.785,1601.074h84.777l0.146-3.449l1.041-22.849h-57.688c-7.142,0-13.749,4.193-18.801,8.566
			c-4.178,3.741-7.287,8.648-8.745,14.283C1762.173,1598.742,1761.93,1599.908,1761.785,1601.074z"/>
		<path style="fill:#FFF1F0;" d="M1761.785,1601.074h84.777l0.146-3.449h-84.194
			C1762.173,1598.742,1761.93,1599.908,1761.785,1601.074z"/>
		<g>
			
				<path style="fill:none;stroke:#FFF1F0;stroke-width:1.1091;stroke-linecap:round;stroke-linejoin:round;stroke-miterlimit:10;" d="
				M1788.324,1579.477c0,0,7.328-12.861,12.263-7.776S1788.324,1579.477,1788.324,1579.477"/>
			
				<path style="fill:none;stroke:#FFF1F0;stroke-width:1.1091;stroke-linecap:round;stroke-linejoin:round;stroke-miterlimit:10;" d="
				M1790.903,1582.038l-2.58-2.561c0,0-7.328-12.861-12.263-7.776c-4.935,5.085,12.263,7.776,12.263,7.776"/>
			
				<line style="fill:none;stroke:#FFF1F0;stroke-width:1.1091;stroke-linecap:round;stroke-linejoin:round;stroke-miterlimit:10;" x1="1786.355" y1="1582.038" x2="1788.324" y2="1579.477"/>
		</g>
		<path style="fill:#322A28;" d="M2018.346,1601.074h-84.777l-0.146-3.449l-1.041-22.849h57.688c7.142,0,13.749,4.193,18.802,8.566
			c4.178,3.741,7.287,8.648,8.745,14.283C2017.957,1598.742,2018.2,1599.908,2018.346,1601.074z"/>
		<path style="fill:#FFF1F0;" d="M2018.346,1601.074h-84.777l-0.146-3.449h84.194
			C2017.957,1598.742,2018.2,1599.908,2018.346,1601.074z"/>
		<g>
			
				<path style="fill:none;stroke:#FFF1F0;stroke-width:1.1091;stroke-linecap:round;stroke-linejoin:round;stroke-miterlimit:10;" d="
				M1991.807,1580.255c0,0-7.328-12.861-12.263-7.776C1974.609,1577.563,1991.807,1580.255,1991.807,1580.255"/>
			
				<path style="fill:none;stroke:#FFF1F0;stroke-width:1.1091;stroke-linecap:round;stroke-linejoin:round;stroke-miterlimit:10;" d="
				M1989.227,1582.816l2.58-2.561c0,0,7.328-12.861,12.263-7.776c4.935,5.084-12.263,7.776-12.263,7.776"/>
			
				<line style="fill:none;stroke:#FFF1F0;stroke-width:1.1091;stroke-linecap:round;stroke-linejoin:round;stroke-miterlimit:10;" x1="1993.775" y1="1582.816" x2="1991.807" y2="1580.255"/>
		</g>
		<polyline style="fill:none;stroke:#FFFFFF;stroke-width:1.6064;stroke-miterlimit:10;" points="1885.482,1293.274 
			1882.725,1270.686 1868.862,1261.123 1857.599,1215.237 		"/>
		
			<line style="fill:none;stroke:#FFFFFF;stroke-width:1.6064;stroke-miterlimit:10;" x1="1790.077" y1="1523.675" x2="1844.603" y2="1523.675"/>
		
			<line style="fill:none;stroke:#FFFFFF;stroke-width:1.6064;stroke-miterlimit:10;" x1="1935.967" y1="1523.675" x2="1990.494" y2="1523.675"/>
	</g>
	<path style="fill:#E5F0F8;" d="M2316.257,1201.525c-9.786-13.981-26.371-22.808-44.879-21.749
		c-0.561,0.032-1.133,0.075-1.694,0.119c-25.226,2.259-45.204,23.115-46.406,48.416c-0.46,9.912,1.888,19.22,6.3,27.2
		c2.127,3.839,4.717,7.367,7.711,10.515v0.012c2.364,2.467,4.958,4.709,7.759,6.667c6.807,4.759,11.076,12.275,12.059,20.449
		l-2.363,0.035c-0.678,0.01-1.305,0.3-1.743,0.751c-0.081,0.083-0.149,0.178-0.23,0.272c-0.298,0.414-0.478,0.931-0.469,1.492
		c0.02,1.368,1.148,2.474,2.516,2.453c-0.678,0.01-1.305,0.3-1.743,0.751c-0.046,0.047-0.081,0.095-0.127,0.142
		c-0.367,0.45-0.581,1.014-0.572,1.622c0.021,1.368,1.148,2.474,2.516,2.453c-0.678,0.01-1.305,0.3-1.743,0.763
		c-0.069,0.071-0.138,0.154-0.207,0.237c-0.309,0.426-0.5,0.966-0.492,1.528c0.02,1.356,1.148,2.462,2.516,2.442
		c-0.678,0.01-1.305,0.3-1.743,0.763c-0.034,0.036-0.058,0.059-0.081,0.095c-0.391,0.439-0.628,1.027-0.618,1.67
		c0.02,1.368,1.147,2.462,2.516,2.442l2.561-0.038c0.032,0.609,0.084,1.214,0.179,1.81c0.341,2.067,1.064,4,2.086,5.734c0,0,0,0,0,0
		c0.192,0.328,0.396,0.647,0.61,0.96c0.107,0.156,0.221,0.306,0.333,0.458c0.149,0.203,0.302,0.404,0.46,0.6
		c0.116,0.144,0.233,0.286,0.353,0.425c0.191,0.222,0.39,0.437,0.592,0.648c0.094,0.098,0.184,0.201,0.281,0.297
		c0.293,0.292,0.599,0.571,0.913,0.84c0.109,0.094,0.223,0.182,0.334,0.272c0.233,0.189,0.47,0.373,0.713,0.55
		c0.124,0.09,0.247,0.179,0.373,0.266c0.288,0.198,0.583,0.386,0.884,0.566c0.074,0.045,0.146,0.093,0.221,0.137
		c0.371,0.214,0.753,0.411,1.141,0.597c0.12,0.058,0.243,0.11,0.365,0.165c0.291,0.131,0.586,0.254,0.886,0.368
		c0.132,0.051,0.264,0.101,0.398,0.148c0.376,0.133,0.757,0.254,1.145,0.359c0.044,0.012,0.087,0.028,0.132,0.039
		c0.43,0.114,0.869,0.206,1.312,0.285c0.13,0.023,0.261,0.041,0.392,0.061c0.335,0.052,0.673,0.094,1.015,0.125
		c0.136,0.013,0.271,0.026,0.407,0.036c0.462,0.031,0.927,0.05,1.398,0.043l2.794-0.042c4.618-0.069,8.776-2.002,11.747-5.075
		c2.442-2.504,4.089-5.768,4.584-9.4c0.038-0.313,0.066-0.629,0.086-0.946c0.021-0.284,0.031-0.569,0.038-0.855
		c0-0.004,0.001-0.008,0.001-0.012l2.327-0.035c0.678-0.01,1.305-0.3,1.743-0.751c0.449-0.463,0.721-1.075,0.71-1.765
		c-0.01-0.643-0.264-1.224-0.679-1.65c-0.452-0.508-1.123-0.813-1.848-0.803c0.678-0.01,1.305-0.3,1.743-0.751
		c0.449-0.463,0.72-1.086,0.71-1.765c-0.009-0.561-0.215-1.096-0.549-1.512c-0.465-0.578-1.184-0.953-1.979-0.941
		c0.678-0.01,1.305-0.3,1.743-0.763c0.449-0.451,0.721-1.087,0.71-1.765c-0.009-0.608-0.24-1.166-0.632-1.604
		c-0.464-0.519-1.147-0.848-1.896-0.837c0.678-0.01,1.305-0.3,1.743-0.763c0.45-0.451,0.721-1.075,0.711-1.765
		c-0.008-0.561-0.203-1.073-0.525-1.477c-0.465-0.601-1.196-0.976-2.003-0.964l-2.351,0.035c0.741-8.2,4.792-15.841,11.443-20.811
		c12.699-9.475,20.833-24.693,20.579-41.751C2325.317,1219.434,2321.932,1209.614,2316.257,1201.525z"/>
	<g>
		<g>
			<g>
				<path style="fill:#0775EF;" d="M369.773,850.141c-0.424,24.967-19.666,45.305-43.945,47.568
					c4.73,22.755,13.199,44.832,25.524,65.339c19.394-14.946,47.259-13.319,64.712,4.805c4.586,4.692,7.986,10.184,10.294,15.934
					c6.304,16.129,3.605,34.99-7.834,48.854c12.953,8.438,26.615,15.279,40.743,20.648c6.406,2.395,12.943,4.508,19.511,6.266
					c1.289,0.407,2.647,0.717,3.922,1.041c3.241-24.277,24.182-42.699,49.15-42.275c12.624,0.277,23.975,5.211,32.406,13.228
					c8.404,7.846,13.959,18.676,15.161,30.717c22.67-4.717,44.748-13.184,65.169-25.497c-14.776-19.42-13.052-47.214,4.903-64.641
					c18.051-17.355,45.908-17.998,64.788-2.459c13.009-19.966,22.317-41.793,27.855-64.248
					c-24.192-3.255-42.601-24.111-42.092-49.092c0.424-24.967,19.665-45.306,43.946-47.569
					c-4.718-22.669-13.199-44.832-25.512-65.253c-17.28,13.389-41.57,13.382-58.952,0.139c-1.96-1.35-3.89-3.055-5.675-4.957
					c-17.454-18.124-18.097-45.98-2.46-64.789c-12.177-7.949-25.016-14.57-38.337-19.805c-6.407-2.395-12.872-4.607-19.454-6.45
					c-2.194-0.615-4.388-1.229-6.568-1.758c-3.157,24.263-24.098,42.686-49.079,42.177c-4.554-0.067-8.946-0.771-13.064-1.955
					c-18.709-5.606-32.573-22.026-34.49-41.905c-22.67,4.717-44.748,13.185-65.168,25.497c14.775,19.421,13.051,47.214-4.903,64.641
					c-18.052,17.355-45.908,17.999-64.789,2.459c-13.008,19.965-22.316,41.793-27.94,64.262
					C351.86,804.219,370.197,825.174,369.773,850.141z M463.081,778.785c11.444-11.069,24.79-18.943,38.99-23.633
					c18.341-6.13,38.04-6.97,56.744-2.499c6.614,1.489,13.178,3.772,19.41,6.719c11.391,5.19,21.998,12.6,31.195,22.156
					c11.491,11.902,19.559,25.917,24.158,40.654c11.399,36.205,2.268,77.4-26.928,105.514c-3.49,3.347-7.191,6.465-11.044,9.171
					c-24.114,17.701-54.043,23.478-81.97,17.58c-6.686-1.39-13.222-3.503-19.598-6.252c-12.27-5.226-23.712-12.941-33.542-23.183
					c-3.869-4.019-7.336-8.276-10.49-12.758C421.436,871.335,426.004,814.523,463.081,778.785z"/>
			</g>
		</g>
		<polygon style="fill:#0775EF;" points="587.031,645.887 610.97,624.945 604.731,679.801 		"/>
		<polygon style="fill:#0775EF;" points="449.167,648.758 425.229,669.701 460.625,686.278 471.183,652.525 		"/>
		<polygon style="fill:#0775EF;" points="349.766,876.767 325.828,897.71 344.812,912.982 366.368,895.364 		"/>
		<polygon style="fill:#0775EF;" points="379.475,715.859 355.537,736.801 364.503,760.637 370.721,734.74 		"/>
		<polygon style="fill:#0775EF;" points="506.638,1039.653 482.7,1060.596 468.346,1043.563 482.233,1026.152 		"/>
		<polygon style="fill:#0775EF;" points="767.927,787.817 743.989,808.759 719.611,788.722 732.669,770.69 		"/>
		<polygon style="fill:#0775EF;" points="668.526,1015.826 644.588,1036.768 609.498,1030.919 634.184,1010.399 		"/>
		<polygon style="fill:#0775EF;" points="738.217,948.726 714.279,969.668 708.419,929.719 729.871,934.072 		"/>
		<g>
			<g>
				<path style="fill:#088CFC;" d="M393.711,829.199c-0.424,24.967-19.666,45.305-43.945,47.568
					c4.73,22.755,13.199,44.832,25.524,65.339c19.394-14.946,47.259-13.319,64.712,4.805c4.586,4.692,7.987,10.184,10.294,15.934
					c6.304,16.129,3.605,34.99-7.834,48.854c12.953,8.438,26.615,15.279,40.743,20.648c6.406,2.395,12.943,4.508,19.511,6.266
					c1.289,0.407,2.647,0.717,3.922,1.04c3.241-24.277,24.182-42.699,49.15-42.275c12.624,0.277,23.975,5.211,32.406,13.228
					c8.404,7.846,13.959,18.676,15.161,30.717c22.67-4.717,44.748-13.184,65.169-25.497c-14.776-19.42-13.051-47.214,4.903-64.641
					c18.051-17.355,45.908-17.999,64.788-2.459c13.009-19.966,22.317-41.793,27.856-64.248
					c-24.192-3.255-42.601-24.111-42.092-49.092c0.424-24.967,19.665-45.306,43.946-47.569
					c-4.718-22.669-13.199-44.832-25.512-65.253c-17.281,13.389-41.57,13.382-58.952,0.139c-1.96-1.35-3.89-3.055-5.675-4.957
					c-17.454-18.124-18.097-45.98-2.46-64.789c-12.177-7.949-25.016-14.57-38.337-19.805c-6.407-2.395-12.872-4.607-19.453-6.45
					c-2.194-0.615-4.388-1.229-6.568-1.758c-3.157,24.263-24.098,42.686-49.079,42.177c-4.554-0.067-8.946-0.771-13.064-1.955
					c-18.709-5.606-32.573-22.026-34.49-41.905c-22.67,4.717-44.748,13.185-65.168,25.497c14.775,19.421,13.051,47.214-4.903,64.641
					c-18.052,17.355-45.908,17.999-64.789,2.459c-13.008,19.965-22.316,41.793-27.94,64.262
					C375.798,783.277,394.136,804.232,393.711,829.199z M487.019,757.843c11.444-11.069,24.79-18.943,38.99-23.633
					c18.341-6.13,38.04-6.97,56.744-2.499c6.614,1.489,13.178,3.772,19.41,6.719c11.391,5.19,21.998,12.6,31.195,22.156
					c11.492,11.901,19.559,25.917,24.159,40.654c11.399,36.205,2.268,77.4-26.928,105.514c-3.49,3.347-7.191,6.465-11.044,9.171
					c-24.114,17.701-54.043,23.478-81.97,17.58c-6.686-1.39-13.222-3.503-19.598-6.252c-12.27-5.226-23.712-12.941-33.542-23.183
					c-3.869-4.019-7.337-8.276-10.49-12.758C445.375,850.393,449.942,793.581,487.019,757.843z"/>
			</g>
		</g>
	</g>
	<g>
		<g>
			<g>
				<path style="fill:#0775EF;" d="M815.029,686.995c2.799,13.413-5.032,26.629-17.752,30.784
					c5.29,11.604,12.498,22.392,21.58,31.872c8.567-10.349,23.677-12.857,35.214-5.273c3.023,1.955,5.508,4.482,7.44,7.279
					c5.329,7.867,6.17,18.288,1.729,27.094c7.955,2.946,16.095,4.951,24.307,6.111c3.719,0.505,7.473,0.844,11.201,0.988
					c0.739,0.062,1.504,0.063,2.225,0.081c-1.208-13.385,7.766-25.782,21.179-28.582c6.79-1.382,13.462-0.117,18.946,3.151
					c5.449,3.18,9.734,8.303,11.837,14.601c11.56-5.272,22.349-12.48,31.785-21.545c-10.262-8.602-12.708-23.685-5.212-35.188
					c7.557-11.476,22.386-15.197,34.374-9.169c4.542-12.262,6.877-25.071,7.119-37.759c-13.341,1.19-25.721-7.739-28.477-21.17
					c-2.799-13.413,5.032-26.63,17.752-30.784c-5.273-11.56-12.498-22.392-21.563-31.828c-7.625,9.26-20.625,12.201-31.532,7.22
					c-1.213-0.485-2.452-1.163-3.638-1.965c-11.538-7.583-15.259-22.413-9.17-34.374c-7.48-2.778-15.154-4.765-22.917-5.952
					c-3.719-0.505-7.447-0.905-11.193-1.094c-1.249-0.063-2.497-0.126-3.728-0.145c1.252,13.367-7.722,25.765-21.153,28.52
					c-2.445,0.516-4.881,0.672-7.229,0.537c-10.692-0.732-20.102-7.839-23.537-18.245c-11.56,5.272-22.349,12.48-31.785,21.544
					c10.261,8.602,12.707,23.685,5.212,35.188c-7.557,11.476-22.386,15.197-34.374,9.17c-4.541,12.261-6.877,25.071-7.163,37.777
					C799.875,664.591,812.229,673.582,815.029,686.995z M856.313,637.498c4.783-7.311,10.97-13.143,18.001-17.374
					c9.072-5.504,19.512-8.341,30.064-8.216c3.72-0.005,7.509,0.422,11.202,1.243c6.725,1.397,13.3,4.077,19.38,8.076
					c7.593,4.976,13.609,11.499,17.857,18.828c10.489,17.994,10.596,41.146-1.621,59.731c-1.462,2.214-3.065,4.332-4.799,6.247
					c-10.759,12.396-26.076,19.115-41.736,19.344c-3.746,0.066-7.501-0.272-11.246-0.97c-7.2-1.309-14.258-4.051-20.76-8.341
					c-2.557-1.682-4.929-3.54-7.16-5.556C845.246,692.075,840.803,661.118,856.313,637.498z"/>
			</g>
		</g>
		<polygon style="fill:#0775EF;" points="906.537,551.352 916.809,537.243 920.12,567.356 		"/>
		<polygon style="fill:#0775EF;" points="833.106,569.6 822.834,583.709 843.786,588.29 845.344,568.947 		"/>
		<polygon style="fill:#0775EF;" points="807.549,703.67 797.277,717.779 809.288,723.651 818.688,711.609 		"/>
		<polygon style="fill:#0775EF;" points="803.943,613.957 793.671,628.066 801.359,639.735 801.547,625.122 		"/>
		<polygon style="fill:#0775EF;" points="911.245,771.824 900.973,785.933 891.227,778.558 896.548,767.557 		"/>
		<polygon style="fill:#0775EF;" points="1020.549,605.379 1010.277,619.488 994.802,611.72 999.605,600.487 		"/>
		<polygon style="fill:#0775EF;" points="994.992,739.449 984.72,753.558 965.233,754.682 975.956,740.708 		"/>
		<polygon style="fill:#0775EF;" points="1024.155,695.092 1013.882,709.201 1005.904,688.532 1017.912,688.261 		"/>
		<g>
			<g>
				<path style="fill:#088CFC;" d="M825.301,672.886c2.799,13.413-5.032,26.629-17.752,30.784
					c5.29,11.604,12.498,22.392,21.579,31.872c8.567-10.349,23.677-12.857,35.214-5.273c3.023,1.955,5.508,4.482,7.441,7.28
					c5.329,7.867,6.17,18.288,1.729,27.094c7.955,2.946,16.095,4.951,24.307,6.111c3.719,0.505,7.473,0.844,11.201,0.988
					c0.739,0.062,1.504,0.063,2.225,0.081c-1.208-13.385,7.766-25.782,21.179-28.582c6.79-1.382,13.462-0.117,18.946,3.151
					c5.449,3.18,9.734,8.303,11.837,14.601c11.56-5.272,22.349-12.48,31.785-21.545c-10.262-8.602-12.708-23.685-5.212-35.188
					c7.557-11.476,22.386-15.197,34.374-9.169c4.542-12.262,6.877-25.071,7.119-37.759c-13.341,1.19-25.721-7.74-28.477-21.17
					c-2.799-13.413,5.032-26.63,17.752-30.784c-5.273-11.56-12.498-22.392-21.563-31.828c-7.625,9.26-20.625,12.201-31.532,7.221
					c-1.213-0.485-2.452-1.163-3.638-1.965c-11.538-7.583-15.259-22.413-9.17-34.374c-7.48-2.778-15.154-4.765-22.917-5.952
					c-3.719-0.505-7.447-0.905-11.193-1.094c-1.249-0.063-2.497-0.126-3.728-0.145c1.252,13.367-7.722,25.765-21.153,28.521
					c-2.445,0.516-4.881,0.672-7.229,0.537c-10.692-0.732-20.102-7.839-23.537-18.245c-11.56,5.273-22.349,12.48-31.785,21.544
					c10.261,8.602,12.707,23.685,5.212,35.188c-7.557,11.476-22.386,15.197-34.374,9.17c-4.541,12.262-6.877,25.071-7.163,37.777
					C810.148,650.482,822.501,659.473,825.301,672.886z M866.586,623.389c4.783-7.311,10.97-13.143,18.001-17.374
					c9.072-5.504,19.512-8.341,30.064-8.216c3.72-0.005,7.509,0.422,11.202,1.243c6.725,1.397,13.3,4.077,19.38,8.076
					c7.593,4.976,13.609,11.499,17.857,18.828c10.489,17.994,10.596,41.146-1.621,59.731c-1.462,2.214-3.064,4.332-4.799,6.247
					c-10.759,12.396-26.076,19.115-41.736,19.344c-3.747,0.066-7.501-0.272-11.246-0.97c-7.2-1.309-14.258-4.051-20.76-8.341
					c-2.557-1.682-4.93-3.54-7.16-5.556C855.518,677.966,851.076,647.009,866.586,623.389z"/>
			</g>
		</g>
	</g>
	<g>
		<g>
			<g>
				<path style="fill:#0775EF;" d="M1090.125,806.149c0.273,16.859-12.256,31.017-28.592,33.089
					c3.703,15.251,9.913,29.961,18.691,43.524c12.754-10.522,31.596-10.049,43.782,1.792c3.2,3.064,5.618,6.694,7.305,10.523
					c4.616,10.744,3.217,23.533-4.192,33.147c8.931,5.404,18.305,9.715,27.96,13.022c4.377,1.473,8.836,2.752,13.308,3.792
					c0.879,0.246,1.803,0.425,2.67,0.614c1.643-16.457,15.363-29.36,32.223-29.633c8.526-0.096,16.297,2.98,22.167,8.201
					c5.848,5.107,9.84,12.291,10.921,20.391c15.194-3.692,29.904-9.901,43.411-18.669c-10.408-12.775-9.867-31.571,1.86-43.736
					c11.793-12.117,30.579-13.176,43.67-3.112c8.332-13.766,14.125-28.706,17.359-43.985c-16.4-1.654-29.292-15.318-29.508-32.188
					c-0.274-16.86,12.256-31.018,28.593-33.089c-3.693-15.194-9.913-29.961-18.681-43.467c-11.362,9.423-27.755,9.964-39.783,1.416
					c-1.353-0.867-2.694-1.974-3.941-3.218c-12.186-11.84-13.245-30.626-3.113-43.67c-8.396-5.092-17.21-9.272-26.318-12.507
					c-4.378-1.473-8.791-2.82-13.274-3.917c-1.494-0.366-2.989-0.731-4.472-1.039c-1.587,16.445-15.307,29.349-32.178,29.565
					c-3.075,0.057-6.055-0.32-8.861-1.027c-12.752-3.364-22.477-14.135-24.217-27.508c-15.194,3.692-29.904,9.902-43.41,18.669
					c10.407,12.776,9.866,31.572-1.86,43.736c-11.794,12.117-30.579,13.176-43.671,3.112c-8.331,13.766-14.124,28.706-17.415,43.996
					C1077.006,775.558,1089.851,789.289,1090.125,806.149z M1151.498,755.9c7.475-7.727,16.306-13.341,25.784-16.824
					c12.241-4.548,25.516-5.557,38.24-2.959c4.497,0.857,8.978,2.25,13.25,4.1c7.804,3.247,15.129,8.011,21.55,14.253
					c8.022,7.775,13.781,17.052,17.216,26.895c8.505,24.179,3.266,52.186-15.808,71.815c-2.28,2.337-4.708,4.525-7.248,6.437
					c-15.877,12.487-35.947,17.057-54.927,13.703c-4.543-0.789-9.002-2.068-13.367-3.78c-8.398-3.252-16.293-8.202-23.157-14.894
					c-2.701-2.626-5.137-5.421-7.366-8.375C1125.467,819.295,1127.276,780.85,1151.498,755.9z"/>
			</g>
		</g>
		<polygon style="fill:#0775EF;" points="1232.172,663.429 1247.858,648.758 1244.877,685.92 		"/>
		<polygon style="fill:#0775EF;" points="1139.193,668.458 1123.506,683.128 1147.767,693.523 1154.135,670.506 		"/>
		<polygon style="fill:#0775EF;" points="1077.219,824.568 1061.533,839.238 1074.688,849.12 1088.841,836.746 		"/>
		<polygon style="fill:#0775EF;" points="1093.662,715.306 1077.976,729.976 1084.562,745.862 1088.177,728.245 		"/>
		<polygon style="fill:#0775EF;" points="1186.743,930.981 1171.057,945.652 1160.988,934.478 1169.97,922.416 		"/>
		<polygon style="fill:#0775EF;" points="1357.439,755.161 1341.753,769.831 1324.851,756.855 1333.26,744.392 		"/>
		<polygon style="fill:#0775EF;" points="1295.466,911.271 1279.78,925.941 1255.967,922.781 1272.167,908.378 		"/>
		<polygon style="fill:#0775EF;" points="1340.995,864.423 1325.309,879.093 1320.458,852.263 1335.034,854.72 		"/>
		<g>
			<g>
				<path style="fill:#088CFC;" d="M1105.811,791.479c0.273,16.859-12.256,31.017-28.592,33.089
					c3.703,15.251,9.913,29.961,18.691,43.524c12.754-10.522,31.596-10.049,43.782,1.792c3.2,3.064,5.618,6.694,7.305,10.523
					c4.616,10.744,3.217,23.534-4.192,33.147c8.931,5.404,18.305,9.715,27.96,13.022c4.377,1.473,8.836,2.752,13.308,3.792
					c0.879,0.246,1.803,0.425,2.67,0.614c1.643-16.457,15.363-29.36,32.223-29.633c8.526-0.096,16.297,2.979,22.167,8.201
					c5.848,5.107,9.839,12.291,10.921,20.391c15.194-3.691,29.904-9.901,43.411-18.669c-10.408-12.776-9.867-31.572,1.86-43.736
					c11.793-12.117,30.579-13.176,43.67-3.112c8.332-13.766,14.125-28.706,17.359-43.985c-16.4-1.654-29.292-15.317-29.508-32.188
					c-0.274-16.86,12.256-31.018,28.593-33.089c-3.693-15.194-9.913-29.961-18.681-43.467c-11.362,9.423-27.755,9.964-39.783,1.416
					c-1.353-0.867-2.694-1.975-3.941-3.218c-12.186-11.84-13.245-30.626-3.113-43.67c-8.396-5.092-17.21-9.272-26.318-12.507
					c-4.378-1.473-8.791-2.82-13.274-3.917c-1.495-0.366-2.989-0.731-4.472-1.039c-1.587,16.445-15.307,29.349-32.178,29.565
					c-3.075,0.057-6.055-0.32-8.861-1.027c-12.752-3.364-22.477-14.135-24.217-27.508c-15.194,3.692-29.904,9.902-43.41,18.669
					c10.407,12.776,9.866,31.572-1.86,43.736c-11.794,12.117-30.579,13.176-43.671,3.112c-8.331,13.766-14.124,28.706-17.416,43.996
					C1092.692,760.888,1105.538,774.619,1105.811,791.479z M1167.184,741.229c7.475-7.727,16.306-13.34,25.784-16.824
					c12.241-4.548,25.516-5.557,38.24-2.959c4.497,0.857,8.978,2.25,13.25,4.1c7.804,3.247,15.129,8.011,21.55,14.254
					c8.022,7.775,13.781,17.052,17.216,26.895c8.505,24.179,3.266,52.186-15.808,71.815c-2.28,2.337-4.708,4.525-7.248,6.437
					c-15.877,12.487-35.947,17.056-54.927,13.702c-4.543-0.788-9.002-2.068-13.367-3.78c-8.398-3.252-16.293-8.202-23.157-14.894
					c-2.701-2.626-5.137-5.421-7.366-8.375C1141.154,804.624,1142.963,766.18,1167.184,741.229z"/>
			</g>
		</g>
	</g>
	<g>
		<path style="fill:#088CFC;" d="M1551.885,1757.574h-278.558c-8.161,0-14.778-6.616-14.778-14.778V1582.72
			c0-8.161,6.616-14.778,14.778-14.778h278.558c8.161,0,14.778,6.616,14.778,14.778v160.077
			C1566.662,1750.958,1560.046,1757.574,1551.885,1757.574z"/>
		<g>
			<path style="fill:#FFFFFF;" d="M1367.958,1638.5c-3.355-3.615-6.602-6.02-9.74-7.227c-3.142-1.204-6.305-1.808-9.487-1.808
				c-4.733,0-9.013,0.839-12.839,2.516c-3.829,1.678-7.119,4.002-9.871,6.97c-2.755,2.965-4.884,6.432-6.388,10.387
				c-1.507,3.956-2.26,8.215-2.26,12.774c0,4.903,0.752,9.419,2.26,13.551c1.504,4.129,3.634,7.698,6.388,10.709
				c2.752,3.012,6.042,5.376,9.871,7.097c3.826,1.721,8.106,2.581,12.839,2.581c3.699,0,7.292-0.882,10.777-2.646
				c3.482-1.761,6.729-4.581,9.74-8.453l13.421,9.549c-4.129,5.68-9.162,9.809-15.098,12.39c-5.936,2.581-12.257,3.869-18.967,3.869
				c-7.057,0-13.529-1.139-19.422-3.417c-5.893-2.278-10.969-5.506-15.225-9.679c-4.259-4.172-7.596-9.184-10.001-15.033
				c-2.411-5.85-3.615-12.344-3.615-19.484c0-7.311,1.204-13.959,3.615-19.939c2.405-5.977,5.742-11.075,10.001-15.29
				c4.256-4.212,9.332-7.462,15.225-9.744c5.893-2.278,12.365-3.417,19.422-3.417c6.193,0,11.935,1.096,17.225,3.29
				c5.293,2.191,10.214,5.915,14.776,11.161L1367.958,1638.5z"/>
			<path style="fill:#FFFFFF;" d="M1438.413,1636.692c-1.721-2.495-4.021-4.324-6.902-5.485c-2.885-1.161-5.915-1.743-9.097-1.743
				c-1.894,0-3.724,0.217-5.485,0.647c-1.764,0.43-3.355,1.117-4.776,2.064c-1.418,0.947-2.56,2.173-3.42,3.677
				c-0.861,1.507-1.291,3.29-1.291,5.355c0,3.098,1.077,5.463,3.228,7.097c2.148,1.634,4.816,3.055,8.001,4.259
				c3.179,1.204,6.664,2.368,10.453,3.485c3.782,1.117,7.267,2.665,10.449,4.643c3.182,1.981,5.85,4.606,8.001,7.874
				c2.151,3.268,3.228,7.611,3.228,13.031c0,4.906-0.904,9.187-2.711,12.842c-1.807,3.655-4.237,6.689-7.289,9.097
				c-3.055,2.408-6.605,4.216-10.647,5.42c-4.045,1.204-8.304,1.805-12.774,1.805c-5.68,0-11.143-0.947-16.389-2.838
				c-5.25-1.891-9.765-5.073-13.551-9.549l12.26-11.87c1.978,3.012,4.581,5.355,7.806,7.032c3.228,1.678,6.645,2.516,10.261,2.516
				c1.891,0,3.782-0.26,5.676-0.774c1.891-0.517,3.612-1.291,5.163-2.324c1.548-1.031,2.795-2.343,3.742-3.934
				c0.944-1.591,1.418-3.42,1.418-5.485c0-3.355-1.074-5.937-3.225-7.744c-2.151-1.804-4.819-3.333-8.001-4.581
				c-3.182-1.244-6.667-2.43-10.453-3.547c-3.785-1.117-7.271-2.646-10.452-4.581c-3.182-1.938-5.85-4.516-7.998-7.744
				c-2.151-3.225-3.228-7.549-3.228-12.969c0-4.729,0.969-8.815,2.903-12.257c1.938-3.442,4.473-6.302,7.614-8.583
				c3.139-2.278,6.732-3.977,10.774-5.095c4.042-1.117,8.171-1.677,12.39-1.677c4.816,0,9.484,0.73,14,2.191
				c4.516,1.464,8.58,3.872,12.195,7.227L1438.413,1636.692z"/>
			<path style="fill:#FFFFFF;" d="M1512.481,1636.692c-1.721-2.495-4.021-4.324-6.902-5.485c-2.885-1.161-5.915-1.743-9.097-1.743
				c-1.894,0-3.724,0.217-5.485,0.647c-1.764,0.43-3.355,1.117-4.776,2.064c-1.418,0.947-2.56,2.173-3.42,3.677
				c-0.86,1.507-1.291,3.29-1.291,5.355c0,3.098,1.077,5.463,3.228,7.097c2.148,1.634,4.816,3.055,8.001,4.259
				c3.179,1.204,6.664,2.368,10.453,3.485c3.782,1.117,7.267,2.665,10.449,4.643c3.182,1.981,5.85,4.606,8.001,7.874
				c2.151,3.268,3.228,7.611,3.228,13.031c0,4.906-0.904,9.187-2.711,12.842s-4.237,6.689-7.289,9.097
				c-3.055,2.408-6.605,4.216-10.647,5.42c-4.046,1.204-8.304,1.805-12.774,1.805c-5.68,0-11.143-0.947-16.389-2.838
				c-5.25-1.891-9.766-5.073-13.551-9.549l12.26-11.87c1.978,3.012,4.581,5.355,7.806,7.032c3.228,1.678,6.645,2.516,10.261,2.516
				c1.891,0,3.782-0.26,5.677-0.774c1.891-0.517,3.612-1.291,5.163-2.324c1.548-1.031,2.795-2.343,3.742-3.934
				c0.944-1.591,1.418-3.42,1.418-5.485c0-3.355-1.074-5.937-3.225-7.744c-2.151-1.804-4.819-3.333-8.001-4.581
				c-3.182-1.244-6.667-2.43-10.453-3.547c-3.785-1.117-7.271-2.646-10.452-4.581c-3.182-1.938-5.85-4.516-7.998-7.744
				c-2.151-3.225-3.228-7.549-3.228-12.969c0-4.729,0.969-8.815,2.903-12.257c1.938-3.442,4.472-6.302,7.614-8.583
				c3.139-2.278,6.732-3.977,10.774-5.095c4.042-1.117,8.171-1.677,12.39-1.677c4.816,0,9.484,0.73,14,2.191
				c4.516,1.464,8.58,3.872,12.195,7.227L1512.481,1636.692z"/>
		</g>
	</g>
	<g>
		<path style="fill:#F9E181;" d="M1790.702,735.489h-233.471c-7.604,0-13.769-6.164-13.769-13.769V554.924
			c0-7.604,6.164-13.769,13.769-13.769h233.471c7.604,0,13.769,6.164,13.769,13.769V721.72
			C1804.471,729.324,1798.307,735.489,1790.702,735.489z"/>
		<g>
			<path style="fill:#FFFFFF;" d="M1657.868,667.418c0,5.154-0.839,10.113-2.487,14.908c-1.663,4.78-4.12,8.99-7.371,12.616
				c-3.251,3.611-7.327,6.502-12.241,8.645c-4.914,2.143-10.623,3.221-17.125,3.221c-10.308,0-18.743-2.397-25.306-7.177
				c-6.577-4.794-10.892-12.391-12.99-22.834l21.725-5.154c0.749,4.3,2.487,7.731,5.259,10.308
				c2.757,2.577,6.158,3.866,10.218,3.866c6.622,0,11.132-2.232,13.529-6.712c2.397-4.48,3.581-10.653,3.581-18.504v-87.454h23.208
				V667.418z"/>
			<path style="fill:#FFFFFF;" d="M1749.921,601.135c-2.457-3.566-5.738-6.173-9.859-7.821c-4.105-1.663-8.435-2.487-12.975-2.487
				c-2.697,0-5.304,0.3-7.821,0.914c-2.517,0.614-4.794,1.603-6.817,2.952s-3.656,3.101-4.884,5.244
				c-1.229,2.143-1.828,4.69-1.828,7.641c0,4.42,1.528,7.791,4.6,10.128c3.057,2.337,6.862,4.36,11.417,6.068
				c4.54,1.723,9.499,3.386,14.908,4.974c5.394,1.603,10.368,3.806,14.908,6.622c4.54,2.832,8.345,6.577,11.417,11.237
				c3.071,4.66,4.6,10.862,4.6,18.594c0,6.997-1.289,13.11-3.866,18.324s-6.038,9.544-10.398,12.975
				c-4.36,3.431-9.424,6.023-15.193,7.731c-5.768,1.723-11.836,2.577-18.219,2.577c-8.106,0-15.897-1.349-23.388-4.045
				s-13.934-7.237-19.328-13.619l17.485-16.945c2.832,4.3,6.547,7.641,11.147,10.038c4.6,2.382,9.484,3.581,14.638,3.581
				c2.697,0,5.394-0.36,8.091-1.094c2.697-0.749,5.154-1.843,7.371-3.326c2.203-1.468,3.985-3.341,5.334-5.604
				c1.348-2.277,2.023-4.884,2.023-7.836c0-4.78-1.528-8.465-4.6-11.042c-3.071-2.577-6.877-4.75-11.417-6.532
				c-4.54-1.783-9.514-3.461-14.908-5.064c-5.409-1.588-10.368-3.776-14.908-6.533c-4.555-2.772-8.36-6.443-11.417-11.057
				c-3.072-4.6-4.6-10.758-4.6-18.489c0-6.757,1.378-12.585,4.135-17.5c2.757-4.899,6.383-8.99,10.863-12.241
				c4.48-3.251,9.604-5.678,15.372-7.267c5.768-1.603,11.656-2.397,17.68-2.397c6.862,0,13.529,1.049,19.972,3.131
				s12.241,5.514,17.395,10.308L1749.921,601.135z"/>
		</g>
	</g>
	<g>
		<path style="fill:#088CFC;" d="M2350.841,1153.878h-253.302c-7.899,0-14.302-6.403-14.302-14.302V974.039
			c0-7.899,6.403-14.302,14.302-14.302h253.302c7.899,0,14.302,6.403,14.302,14.302v165.537
			C2365.143,1147.475,2358.74,1153.878,2350.841,1153.878z"/>
		<g>
			<path style="fill:#FFFFFF;" d="M2098.313,1074.085v-14.136l81.608-44.166v21.591l-54.512,29.643l54.512,29.642v21.591
				L2098.313,1074.085z"/>
			<path style="fill:#FFFFFF;" d="M2204.755,1135.917l-13.385-5.888l50.318-152.331l13.385,6.282L2204.755,1135.917z"/>
			<path style="fill:#FFFFFF;" d="M2350.066,1059.949v14.136l-81.608,44.166v-21.591l54.512-29.642l-54.512-29.643v-21.591
				L2350.066,1059.949z"/>
		</g>
	</g>
	<g>
		<path style="fill:#F9E181;" d="M656.145,1322.47H287.142c-9.362,0-16.952-7.59-16.952-16.953v-156.936
			c0-9.363,7.59-16.952,16.952-16.952h369.003c9.362,0,16.952,7.59,16.952,16.952v156.936
			C673.097,1314.88,665.507,1322.47,656.145,1322.47z"/>
		<g>
			<path style="fill:#FFFFFF;" d="M303.554,1182.444h15.874v35.536h41.704v-35.536h15.884v89.213h-15.884v-39.315h-41.704v39.315
				h-15.874V1182.444z"/>
			<path style="fill:#FFFFFF;" d="M415.193,1196.81h-27.348v-14.366h70.56v14.366h-27.338v74.847h-15.874V1196.81z"/>
			<path style="fill:#FFFFFF;" d="M469.634,1182.444h24.19l23.811,62.5l24.067-62.5h23.944v89.213H550.53v-74.093h-0.256
				l-27.092,74.093h-11.085l-27.092-74.093h-0.256v74.093h-15.115V1182.444z"/>
			<path style="fill:#FFFFFF;" d="M585.928,1182.444h15.874v74.847h37.931v14.366h-53.805V1182.444z"/>
		</g>
	</g>
</g>
</svg>
